<?xml version="1.0" encoding="utf-8"?>
<!-- Generator: Adobe Illustrator 23.0.1, SVG Export Plug-In . SVG Version: 6.00 Build 0)  -->
<svg version="1.1" id="Layer_1" xmlns="http://www.w3.org/2000/svg" xmlns:xlink="http://www.w3.org/1999/xlink" x="0px" y="0px"
	 viewBox="0 0 512 512" style="enable-background:new 0 0 512 512;" xml:space="preserve">
<style type="text/css">
	.st0{fill:#3E3F3C;}
	.st1{fill:#F7E8B4;}
	.st2{fill:#FBF7E4;}
	.st3{fill:#EECF79;}
	.st4{fill:#5F4C4A;}
	.st5{fill:#FBFBFB;}
	.st6{fill:#334043;}
	.st7{fill:#DAE4E3;}
	.st8{fill:#D35D4B;}
	.st9{fill:#EC6E52;}
</style>
<g>
	<path class="st0" d="M431.2,26.1c-5.5,0.9-10.8-2.9-11.8-8.7c-1-5.7,2.7-11.2,8.2-12.1c5.5-0.9,10.8,2.9,11.8,8.7
		C440.4,19.7,436.7,25.1,431.2,26.1L431.2,26.1z"/>
	<path class="st1" d="M428.6,21.6c-3-0.4-5.1-3.4-4.7-6.6c0.4-3.2,3.3-5.5,6.3-5.1c3,0.4,5.1,3.4,4.7,6.6
		C434.4,19.7,431.6,22,428.6,21.6L428.6,21.6z"/>
	<path class="st0" d="M390.5,211.3c-0.8,0.4-1.1,1-0.9,1.8c0.1,0.4-0.1,0.5-0.5,0.4c-0.1,0-0.3,0-0.4,0c-0.5,0-0.7,0.3-0.4,0.8
		c0.2,0.3,0,0.5-0.4,0.7c0,0,0,0,0,0c0,0,0,0,0,0c0.1,0,0.1-0.1,0.1-0.2c-0.1-0.2-0.1-0.2-0.3-0.1c-0.4,0.4-0.5,0.8-0.2,1.3
		c0.1,0.2,0.1,0.3-0.2,0.2c-0.1,0-0.1-0.1-0.2-0.1c-0.1,0-0.2,0-0.3,0.1c-0.2,0.2-0.2,0.5-0.2,0.7c0.1,0.3,0.3,0.4,0.6,0.4l1.1,0.1
		c0.4,0,0.5,0.2,0.5,0.6l-0.1,0.7c0-0.5-0.2-0.7-0.6-0.7c-8.5,0.8-17.2,1.8-26.3,3.2c-6,0.9-11.3,1.6-15.7,2.1
		c-7.6,0.8-15.1,1.6-22.2,2.5c-0.3,0-0.6,0.3-0.6,0.7c0,2.4-0.3,4.5-0.7,6.3c-0.7,2.7-2.3,3.7-4.6,4.8c-0.3,0.2-0.3,0.2,0.1,0.2
		c8.6-1,17.2-1.5,26-2.5c9.5-1.1,19-2.3,28.6-3.4c-0.9,0.6-2.1,0.8-3.5,0.5c-0.2,0-0.4,0-0.6,0c-0.1,0-0.2,0.1-0.2,0.2
		c0,0.3-0.2,0.4-0.5,0.3c-0.4-0.2-0.8-0.2-1.2,0c-0.2,0.1-0.5,0.2-0.7,0.2l-2.1,0c-0.2,0-0.5,0.1-0.6,0.3l-1.1,1
		c-0.2,0.2-0.2,0.3-0.2,0.6c0,0.3,0.2,0.6,0.4,0.8c0.1,0.1,0.1,0.2,0,0.3c-0.1,0.1-0.2,0.2-0.2,0.3c0,0.2,0.1,0.4,0.3,0.4
		c0.1,0,0.2,0,0.2,0.2c0,0.4,0.2,0.6,0.6,0.7l3.4,0.6l-6.2,0.7l-22.4,2.3c-0.3,0-0.4,0.2-0.5,0.5l-0.5,2.2c-0.7-0.9-1.6-1.6-2.7-2.1
		L304,244l-22,1c-6.4,0.1-12.8,0.3-19.3,0.5c-0.7,0-1.6,0-2.8-0.1c-2.2-0.2-3.1,0.2-2.7,1.3c-0.2,1.2-0.6,1.3-1.3,0.2
		c-0.2-0.3-0.4-0.6-0.7-0.7c-0.4-0.2-0.8-0.4-1.2-0.5l-11.9-0.2c1.1-0.5,0.6-0.8-1.6-1c-0.2,0-0.4-0.1-0.5-0.3
		c-0.1-0.2,0-0.2,0.1-0.1c0.1,0.1,0.2,0.1,0.3,0c0.3-0.2,0.3-0.5,0.1-0.7c-0.3-0.4-0.3-0.7,0.2-1c0.1-0.1,0.2-0.2,0.1-0.4
		c-0.1-0.1-0.2-0.2-0.3-0.1c-0.4,0.1-0.6,0-0.8-0.3c-0.1-0.2,0-0.3,0.1-0.3c0.1,0,0.1-0.1,0.2-0.2c0.2-0.3-0.1-0.7-0.5-0.6
		c-1.3,0.2-2.3,0.2-3.1-0.2c9.3,0,18.9,0.2,27.9-0.2c13.6-0.6,26.4-1,38.4-1.1c0.7,0,1.4-0.1,2-0.3c0.4-0.1,0.6-0.5,0.7-0.9
		c0-0.1,0-0.2,0-0.3c0-0.5-0.2-0.6-0.7-0.6c-1.9,0.4-3.6,0.4-4.9,0.1c-2.4-0.5-4.4-2.8-4.5-5.4c0-0.7-0.1-1.4-0.3-2.1
		c-0.2-0.6-0.7-1.1-1.4-1.1l-40.1,1.4c-17.1,0-28.5-0.1-34.2-0.2c-14.8-0.3-31.7-1.3-50.5-2.9c-8.1-0.7-16.1-1.3-24.2-2
		c-13.8-1.1-27.7-3-41.6-5.6c-1.1-1.5-1.6-3.3-1.6-5.2c0.6-0.2,1-0.4,1.2-0.8c0.1-0.2,0.1-0.5,0-0.6c-2.4-2.6-3.3-5.8-2.9-9.7
		c0.6-5.6,5.9-9.3,11.1-10c0.6-0.1,1.4,0,1.9,0.2c0.4,0.2,0.5,0,0.4-0.3c-0.3-1.1-0.3-2.3-0.2-3.4c0.3-2.6,0.7-5.3,1.1-8
		c0.1-0.4-0.1-0.5-0.5-0.5c-2.5,0.3-6.7,0.8-8.9-0.8c-0.7-0.5-0.8-1.3-1.2-2.1c-0.1-0.2-0.4-0.4-0.7-0.4
		c-6.9,0.3-13.2-4.5-13.1-11.9c0.1-3.8,1.7-6.8,4.9-9.1c0.3-0.2,0.5-0.7,0.3-1.1c-4.6-8.6,1.1-18.9,11.5-16.8c0.3,0.1,0.5,0,0.7-0.2
		c3.1-3.2,6.5-4.5,10.3-3.7c5.8,1.1,9.2,4.9,10.1,11.4l0.6,6.8c0,0.3,0.2,0.4,0.5,0.3c0.1,0,0.2-0.1,0.2-0.2
		c0.1-0.2,0.3-0.3,0.5-0.4c3.2-0.8,6.4-0.9,9.5-0.1c0.3,0.1,0.3,0,0.2-0.3l-4.9-10c-4.8-8.5-4.2-15.1,1.7-20
		c1.1-0.9,2.3-1.6,3.7-2.1c1.5-0.6,3.1-1.2,4.5-1.8c1.6-0.7,2.6-1.8,3.9-2.8c2.9-2.2,8.9-1.6,12-0.2c2.6,1.1,5.2,2.2,8,3.1
		c0.2,0.1,0.4-0.1,0.4-0.3c0-0.1,0-0.2-0.1-0.3c-0.1-0.1-0.2-0.2-0.2-0.2c-2.4-1.7-3.8-3.7-4.1-5.8c-0.5-3.1-0.1-6.4,1.2-9.8
		c0.2-0.4-0.2-0.8-0.6-0.7c-1.3,0.3-2.6,0.7-3.9,1c-4.7,1.3-9.5,0.1-12.9-3.5c-3.8-4-3.4-11.2,0.3-15.1c0.3-0.3,0.2-0.7-0.1-0.9
		c-2.4-1.9-4.4-3.7-5.3-6.8c-2.8-9.3,2.3-15.4,11.6-16c0.3,0,0.5-0.2,0.7-0.4c5.8-9,18-7.2,23.4,1c2.3,3.5,4.2,7.9,5.6,13
		c0.4,1.3,0.3,2.7,0.5,4c0,0.3,0.4,0.5,0.6,0.3c0.8-0.4,1.6-0.5,2.4-0.3c4.2,0.8,7.8,3,10.7,6.7c0.3,0.4,0.5,0.4,0.4-0.2
		c-0.9-8.6,2.6-15.7,11.6-17.4c0.4-0.1,0.4-0.2,0.1-0.5c-4.1-2.9-5.6-9.5-4.9-13.4c0.9-5.1,3.9-8.1,9-9c0.3,0,0.5-0.2,0.7-0.5
		c1.6-2.6,2.8-5.4,6.1-6c5.2-1,9.4,0.2,12.6,3.8c0.2,0.3,0.6,0.4,0.9,0.4c3.2-0.2,5.8,0.3,8,2.8c2.8,3.2,4.6,7,5.3,11.4
		c0,0.2,0.2,0.3,0.4,0.3l0.2,0c0,0,0.1,0,0.1-0.1c-0.1-4,0.7-7.4,2.2-10.3c2-3.8,5-5.9,9.1-6.3c6.4-0.7,10.6,2.9,12.7,8.6
		c0.1,0.2,0.3,0.3,0.5,0.3c9.2-1.9,15.1,6,14.5,14.5c0,0.3,0.2,0.6,0.6,0.7c2.5,0.2,4.6,0.8,7.2,0c2.9-0.8,6.3-0.9,9,0.8
		c4.6,2.9,6.2,6.9,7.1,12c0.1,0.3,0.4,0.6,0.7,0.5c0.7-0.1,1.5-0.2,2.3-0.2c3.9-0.2,6.8,2.4,8.7,6c0.3,0.5,0.6,0.6,1,0.1
		c1.2-1.7,3-2.7,5.2-3c8.5-1,13.2,2.6,14.1,10.8c0,0.3,0.2,0.5,0.5,0.6c3.2,1.3,5.7,3.6,7.3,7c3.2,6.7,0.9,12.1-3,17.8
		c-0.3,0.4-0.7,0.7-1.1,1c-0.4,0.3-0.4,0.5,0.1,0.6c2.1,0.6,4.2,1.6,6.2,3c0.3,0.2,0.4,0.1,0.4-0.2c0.1-6.2,3.1-10.4,8.9-12.4
		c6.8-2.3,12.3,0.7,16,6.2c0.2,0.2,0.4,0.3,0.6,0.3c7.6,0.3,12.6,5.9,12,13.6c-0.3,3.3-2.1,5.3-4.2,7.5c-0.6,0.6-0.8,1.4-0.7,2.3
		c0.9,6.4-0.4,11.7-4,16.1c-0.2,0.3-0.2,0.5-0.1,0.8c1.4,3,1.9,6.2,1.6,9.7c0,0.2-0.1,0.4-0.3,0.6c-0.2,0.2-0.5,0.4-0.8,0.5
		c-0.3,0.1-0.4,0.3-0.2,0.6c1.1,1.8,2.3,3.3,2.5,5.5c0.4,3.6-0.5,7.1-2.7,10.5c-0.9,1.4-2,2.4-3.1,3c-0.4,0.2-0.4,0.4,0,0.6l0.2,0.1
		c0.3,0.1,0.4,0.3,0.6,0.6c1.5,3.2,2.3,8.7,0,11.9c-0.3,0.4,0,1,0.5,1c4.8,0.6,9.2,2.7,10.2,8C391.1,208.8,391,210.1,390.5,211.3
		L390.5,211.3z"/>
	<path class="st2" d="M312.3,44c-0.5,2.6-3.2,4.2-6,3.7c-2.8-0.6-4.6-3.1-4.1-5.7c0.5-2.6,3.2-4.2,6-3.7
		C311,38.8,312.8,41.4,312.3,44L312.3,44z"/>
	<path class="st2" d="M234.7,45.7c0.5,4.5,0.6,8.5,0.2,12.2c0,0.3-0.1,0.5-0.3,0.7c-2.2,2.5-4.1,4.2-5.5,5c-0.7,0.4-1.7,0.7-3,0.9
		c-0.9,0.1-1.7-0.1-2.4-0.7c-1-0.9-1.6-2-1.6-3.3c0-0.8-0.3-0.9-0.9-0.3c-0.9,0.9-1.8,1.5-3.1,1.8c-2,0.4-3.8,0.8-5.6,1.2
		c-1.2-0.5-2-1.6-2.5-3.2c-1.4-4.6-1.4-10.7,5-11.2c0.3,0,0.5-0.2,0.7-0.4c2.6-4.6,5.8-7.8,11.4-6.4c1.9,0.5,3.4,1.8,3.1,4
		c0,0.2,0.1,0.3,0.3,0.2C232.5,45.7,233.9,45.5,234.7,45.7L234.7,45.7z"/>
	<path class="st0" d="M336.7,51.8c0,5.4-4.4,9.7-9.7,9.7c-5.4,0-9.7-4.4-9.7-9.7c0-5.4,4.4-9.7,9.7-9.7
		C332.4,42.1,336.7,46.5,336.7,51.8L336.7,51.8z"/>
	<path class="st2" d="M280.4,55.2c0,2.5-0.2,4.3-0.7,5.6c-1.1,2.9-3.2,6.1-6.1,9.6c-1.3,1.5-2.8,1.7-4.7,0.7
		c-0.3-0.1-0.6-0.2-0.9-0.2c-1.2,0-2.4-0.2-3.6-0.7c-1.2-0.4-2.5-0.7-3.8-0.7c-2.6-0.1-5.2-0.3-7.8-0.6c-0.6-0.1-0.8-0.4-0.7-0.9
		c0-0.3,0-0.5-0.1-0.8c-0.5-1.5-0.6-3-0.5-4.6c0-0.3,0.1-0.5,0.3-0.7c0.6-0.7,1.3-1.3,2-1.8c0.4-0.3,0.6-0.9,0.5-1.8
		c-2.8-5.5-2.2-9.8,1.8-13.1c1.1-0.9,2.7-1.4,4.7-1.4c5.7-0.2,8.1,6,7.6,10.7c0,0.3,0.1,0.6,0.2,0.8c0.3,0.4,0.7,0.5,1.2,0.4
		c1.8-0.5,1.4-3.1,4.2-3.1C276.6,52.4,278.7,53.3,280.4,55.2L280.4,55.2z"/>
	<path class="st2" d="M367.8,64.6c-5,0.2-9.2-4-9.4-9.2c-0.2-5.3,3.8-9.7,8.8-9.8c5-0.2,9.2,4,9.4,9.2
		C376.8,60,372.9,64.4,367.8,64.6L367.8,64.6z"/>
	<path class="st3" d="M234.7,45.7c4.4,1.8,7.3,5.3,8.8,10.4c0.3,1.1,0.3,2,0.1,2.9c-1.4,4.5-3.3,8.4-5.8,11.6
		c-0.3,0.4-0.8,0.5-1.3,0.3c-3.5-1.5-7-2-10.8-1.6c-2.2,0.2-2.6-1.7-4.6-1.8c-1.8-0.1-3.5-0.3-5.2-0.8c-1.5-0.4-2.6-1.6-3.4-3.6
		c1.8-0.4,3.7-0.8,5.6-1.2c1.3-0.3,2.2-0.9,3.1-1.8c0.5-0.6,0.8-0.5,0.9,0.3c0.1,1.3,0.6,2.3,1.6,3.3c0.7,0.6,1.4,0.8,2.4,0.7
		c1.3-0.2,2.3-0.5,3-0.9c1.4-0.8,3.2-2.5,5.5-5c0.2-0.2,0.3-0.5,0.3-0.7C235.3,54.2,235.2,50.1,234.7,45.7L234.7,45.7z"/>
	<path class="st1" d="M332.2,51.9c0,2.9-2.3,5.2-5.2,5.2s-5.2-2.3-5.2-5.2c0-2.9,2.3-5.2,5.2-5.2S332.2,49.1,332.2,51.9L332.2,51.9z
		"/>
	<path class="st2" d="M100.7,63.7c0,5.7-4.7,10.4-10.4,10.4s-10.4-4.7-10.4-10.4s4.7-10.4,10.4-10.4S100.7,57.9,100.7,63.7
		L100.7,63.7z"/>
	<path class="st1" d="M280.4,55.2c1.9,1.7,3,3.9,3.4,6.4c0.2,1.1-0.1,2.1-0.8,3.1c-1.4,1.9-2.7,3.7-3.9,5.5
		c-0.6,0.4-1.2,0.9-1.8,1.3c-0.3,0.2-0.8,0.8-1.5,1.6c-2.3,2.6-5.6,3.1-10.1,1.5c-2.6-2.8-6.1-3.9-10.3-3.2c-2.1,0.3-4.3,1-6.6,1.9
		c-0.7,0.3-1.1,0.1-1.2-0.6c-0.4-1.9-0.6-3.8-0.7-5.7c-0.2-2.4,0.2-4.4,1-6c1.2-2.2,4-2.4,6.3-2.7c0,0.9-0.2,1.5-0.5,1.8
		c-0.7,0.5-1.4,1.1-2,1.8c-0.2,0.2-0.3,0.4-0.3,0.7c-0.1,1.6,0,3.1,0.5,4.6c0.1,0.3,0.1,0.5,0.1,0.8c-0.1,0.5,0.2,0.8,0.7,0.9
		c2.6,0.3,5.2,0.5,7.8,0.6c1.3,0.1,2.6,0.3,3.8,0.7c1.2,0.4,2.4,0.6,3.6,0.7c0.3,0,0.6,0.1,0.9,0.2c1.8,1,3.4,0.8,4.7-0.7
		c3-3.5,5-6.7,6.1-9.6C280.2,59.5,280.5,57.6,280.4,55.2L280.4,55.2z"/>
	<path class="st0" d="M432.1,71.8c-2.6,5.8-9.4,8.4-15.3,5.8c-5.9-2.6-8.6-9.4-6-15.2c2.6-5.8,9.4-8.4,15.3-5.8
		C431.9,59.1,434.6,66,432.1,71.8L432.1,71.8z"/>
	<path class="st2" d="M175.4,68.2l-0.1,0.9c0,0.3-0.2,0.4-0.4,0.5c-3.1,0.6-5.6,2-7.6,4.2c-1.3,1.4-1.5,3.3-2.7,4.9
		c-0.2,0.2-0.3,0.3-0.6,0.3c-1.2,0.3-2.5,0.5-3.8,0.4c-0.9,0-1.9,0-2.7,0.1c-0.9,0.1-1.9,0.1-2.8-0.1c-0.3-0.1-0.5,0-0.8,0.1
		c-0.7,0.3-1.4,0.4-2.2,0.4c-3.5-1.5-5.2-4.2-5.1-8.1c0.1-4.5,4.1-8.1,8.6-6.5c0.7,0.3,1.5,0.5,2.3,0.6c0.3,0.1,0.6-0.1,0.7-0.4
		c0.8-3,1.3-5.8,4.7-6.9C170,56.5,174.9,61.4,175.4,68.2L175.4,68.2z"/>
	<path class="st1" d="M428.2,67c0,3.8-3.1,6.9-6.9,6.9s-6.9-3.1-6.9-6.9c0-3.8,3.1-6.9,6.9-6.9S428.2,63.2,428.2,67L428.2,67z"/>
	<path class="st2" d="M306.3,74.7c-0.1,2.9-1.4,5.7-3.7,8.4c-0.5,0.6-1.2,1.3-2.3,2.1c-0.9,0.7-1.7,1.3-2.4,2
		c-0.8,0.8-1.6,1.3-2.5,1.7c-1,0.4-2.1,0.9-3,1.5c-0.2,0.1-0.3,0.2-0.4,0.4c-0.3,0.6-0.8,0.9-1.4,1c-0.3,0-0.5,0.2-0.8,0.3
		c-1.8,1.4-3.5,2.1-5.1,2.4c-2.8,0.4-4.5-0.7-5.2-3.2c-0.5-1.9-1.1-3.4-1.8-4.4c0.9-1.5,2.3-2.3,4.2-2.6c0.8-0.1,1.1-1,0.6-1.6
		c-1.9-2.3-2.4-5-1.4-8.3c1.1-3.6,3.6-5.6,7.6-6c2.6-0.3,4.4,1.1,6.2,2.7c0.3,0.3,0.7,0.2,0.9-0.2l1-2.2c0.1-0.2,0.3-0.4,0.5-0.5
		C301.8,66.1,305.4,70.9,306.3,74.7L306.3,74.7z"/>
	<path class="st1" d="M175.4,68.2c-0.1,1-0.1,1.8,0.7,2.5c2.5,2.4,3.6,5.4,3.1,9.1c-0.1,0.8-0.5,1.3-1.1,1.8
		c-0.5,0.3-1.1,0.6-1.8,0.7c-2.2,0.3-4.4,0.5-6.6,0.7c-1.8-0.3-3,0.4-3.6,2.1c-1.1,3-1.8,6.4-2.1,10.3c-0.5,0.2-0.8,0.4-0.8,0.6
		c0.1-0.9-0.1-1.6-0.6-2.2c-0.2-0.2-0.3-0.4-0.4-0.7c-0.3-1.5-0.4-3.1-0.3-4.9c0.1-1-0.7-1.8-1.7-1.9l-8.9-0.3l1.9-2.5
		c0.2-0.2,0.2-0.4,0.1-0.7c-0.3-1.2-0.9-2.2-1.8-2.9c0.8,0,1.6-0.1,2.2-0.4c0.3-0.1,0.5-0.1,0.8-0.1c0.9,0.2,1.8,0.2,2.8,0.1
		c0.9-0.1,1.8-0.1,2.7-0.1c1.3,0,2.6-0.1,3.8-0.4c0.2-0.1,0.4-0.2,0.6-0.3c1.3-1.5,1.4-3.4,2.7-4.9c2-2.2,4.5-3.6,7.6-4.2
		c0.2,0,0.4-0.2,0.4-0.5L175.4,68.2L175.4,68.2z"/>
	<path class="st3" d="M279.2,70.2l-3,6.6c-0.1,0.2-0.1,0.5,0,0.7l1.1,3.3c0.1,0.3,0.1,0.6-0.2,0.9c-3.6,4-6.6,8.9-5.4,14.6
		c0,0,0,0.1,0,0.1c-0.1,0.1,0,0.1,0.1,0.1c0,0,0,0,0-0.1c-1.8-2.6-2.7-4.9-2.6-6.8c0.1-2.5,0.2-5,0.2-7.4c0.1-3.2-1.6-5.1-3.5-7.5
		c4.4,1.6,7.8,1.1,10.1-1.5c0.7-0.8,1.2-1.3,1.5-1.6C278,71.1,278.5,70.7,279.2,70.2L279.2,70.2z"/>
	<path class="st2" d="M235.9,75.7l-1.9,1.8c-0.2,0.2-0.3,0.4-0.3,0.7c-0.1,0.4-0.3,0.7-0.8,0.7c-0.3,0-0.6,0.2-0.8,0.4
		c-1.8,1.9-4.6,3.4-8.4,4.5c-2.2,0.6-4.4,1-6.6,1.1c-1.2,0.1-2.4-0.2-3.6-0.8c-1.2-0.6-2.4-1.2-3.7-1.7c-0.7-0.3-1.4-0.4-2.1-0.3
		c-1.1,0.1-1.7,0.7-1.7,1.6c0,0.3-0.2,0.5-0.5,0.5l-0.7,0.1c-2-7.1,0.2-11.3,6.7-12.4c1.2-0.2,2.5-0.4,3.8-0.7
		c2.9-0.5,5.9-0.3,7.7,1.8c0.5,0.6,1.4,0.8,2.1,0.3C229.4,70.8,233,71.6,235.9,75.7L235.9,75.7z"/>
	<path class="st1" d="M241.6,77.8c-0.8-1.9,0.4-3,0.9-4.6c0.1-0.3,0.3-0.4,0.5-0.1c1.9,1.8,2.2,3.4,0,5.1
		C242.4,78.6,241.9,78.5,241.6,77.8L241.6,77.8z"/>
	<path class="st1" d="M306.3,74.7l0.9,5.3c0,0.3,0.2,0.5,0.4,0.7c1.6,1.1,3.2,1.6,5.1,1.4c0.8-0.1,1.5,0,2.2,0.3
		c2.9,1.4,4.3,3.8,4.2,7.1c-0.1,2.6-1.2,4.3-3.3,4.9c-0.2,0.1-0.4,0.3-0.4,0.6c0.7,6.2-6.5,9.7-11.9,9.7c-1.2,0-2.1-0.2-2.8-0.5
		c-0.9-0.4-2.2-2.1-3.9-4.9c0.7-2,0.4-4.3-0.8-6.9c-0.3-0.6-0.6-1.1-1.1-1.5c-0.7-0.6-1.8-0.3-2,0.6c-0.6,2.3-1.4,4.6-3.7,5.8
		c-1.3,0.7-2.6,1.3-3.9,1.8c-0.5,0.2-1.5,0.4-3,0.5c-1,0.1-2,0.4-3,0.9c-3.2-4-3.7-8.5-1.5-13.5c0.7,1,1.3,2.4,1.8,4.4
		c0.6,2.5,2.4,3.6,5.2,3.2c1.6-0.2,3.3-1,5.1-2.4c0.2-0.2,0.5-0.3,0.8-0.3c0.6-0.1,1.1-0.5,1.4-1c0.1-0.2,0.2-0.3,0.4-0.4
		c1-0.6,2-1.1,3-1.5c0.9-0.4,1.7-0.9,2.5-1.7c0.7-0.7,1.5-1.3,2.4-2c1-0.8,1.8-1.5,2.3-2.1C305,80.4,306.2,77.6,306.3,74.7
		L306.3,74.7z"/>
	<path class="st1" d="M235.9,75.7l1.5,4c0.1,0.3,0,0.5-0.3,0.5c-5,1.7-8.9,4.6-11.8,8.8c-0.2,0.2-0.4,0.3-0.6,0.3
		c-2.9-0.3-6.3,0.4-8.9-1.4c-2.3-1.6-5.1-2.4-8.2-2.3c-0.5,0-1.4-0.4-2.9-1.3l0.7-0.1c0.3,0,0.5-0.2,0.5-0.5c0-1,0.6-1.5,1.7-1.6
		c0.7-0.1,1.5,0,2.1,0.3c1.2,0.5,2.4,1.1,3.7,1.7c1.2,0.6,2.4,0.9,3.6,0.8c2.1-0.1,4.3-0.5,6.6-1.1c3.8-1.1,6.6-2.5,8.4-4.5
		c0.2-0.2,0.5-0.4,0.8-0.4c0.5,0,0.8-0.3,0.8-0.7c0-0.3,0.2-0.5,0.3-0.7L235.9,75.7L235.9,75.7z"/>
	<path class="st2" d="M265.1,93.9c-0.1,3.3-0.4,5.7-0.9,7c-0.4,1-1.4,2.3-2.8,3.8c-0.2,0.2-0.4,0.3-0.6,0.4c-3.7,1.1-6.8-0.2-9.2-4
		c-0.6-0.9-1.3-1-2.1-0.3c-1.3,1-2,2.2-2.3,3.6c-0.2,1.2-1.2,2.6-2.2,3.2c-0.7,0.4-1.1,1-1.3,1.7c-0.1,0.3-0.2,0.5-0.5,0.6l-1,0.5
		l-6.3,0.6c-0.3,0-0.5-0.1-0.7-0.3c-1.4-1.4-2.3-3-2.7-4.8c-0.1-0.3,0-0.6,0.2-0.9l2.5-3.3c0.2-0.3,0.1-0.7-0.2-0.8
		c-3.4-1.8-6.3-3.4-5.6-7.9c0.6-3.9,3.6-7.3,7.4-8.2c3.8-0.9,7.4-0.3,10.7,1.9c0.2,0.1,0.4,0,0.4-0.3c-0.7-3.6-0.4-7.9,3.7-9.4
		c4.9-1.8,11.8-0.9,13,5.1c0.7,3.6,0.3,6.6-1.2,9c-0.2,0.3-0.1,0.5,0.1,0.8L265.1,93.9L265.1,93.9z"/>
	<path class="st2" d="M185.9,111.4c-0.1,0.3-0.2,0.6-0.2,1c0,0.2-0.1,0.3-0.2,0.3h-0.2c-0.2,0-0.3-0.1-0.3-0.3l-0.2-1.8
		c-0.1-0.5-0.6-0.8-1.1-0.5c-3.5,2.3-7.4,4-11.5,5.3c-3.9-2.7-5.1-6-3.6-9.9c1.5-3.9,5.5-6,8.9-8c0.4-0.2,0.5-0.7,0.4-1.1
		c-0.6-2-2.4-5.9-1.4-7.8c1.9-3.6,4.9-5.5,8.9-5.8c6.9-0.4,9.3,8.2,8.9,13.7c0,0.3-0.2,0.5-0.4,0.7c-1.6,0.9-3.5,1.6-4.9,2.9
		C186,102.9,185.4,107.5,185.9,111.4L185.9,111.4z"/>
	<path class="st3" d="M169.8,82.9c-0.6,1.1-0.7,2-0.3,2.6c1.3,1.7,3.1,3.6,3.7,5.4c0.5,1.6,0.6,3.8-1.1,4.7c-2,1-4.1,1-6.2-0.1
		c-0.6-0.3-1.2-0.4-1.8-0.3c0.4-3.8,1.1-7.3,2.1-10.3C166.7,83.3,167.9,82.7,169.8,82.9L169.8,82.9z"/>
	<path class="st2" d="M344.7,112c-1.3-0.9-2.6-1.8-3.9-2.7c-1.6-1.1-2.3-2.5-2.3-4.3c0-0.8-0.8-1.3-1.6-1l-3.4,1.8
		c-0.4,0.2-0.5,0.8-0.1,1.1c0.8,0.6,0.9,1.2,0.3,2c-1,1.1-2,2.1-2.7,3.5c-1.5,3-4.6,3.8-7.7,4.4c-0.3,0-0.5,0-0.7-0.2l-1.9-1.5
		c-0.8-2.4-0.9-5.3-0.3-8.7c0.4-2.4,1.4-4.2,3-5.3c1.4-1,2.1-1.8,3.1-2.9c0.2-0.2,0.2-0.4,0.2-0.7c-0.7-3.8-0.8-8-0.3-12.3
		c1.3-1.2,2.9-1.7,5-1.6c5.4,0.2,8.3,4.3,7,9.7c-0.1,0.4,0,0.7,0.5,0.8c0.9,0.3,1.8,0.6,2.8,1C349,97.6,348.7,106.4,344.7,112
		L344.7,112z"/>
	<path class="st3" d="M326.3,85.2c-0.5,4.4-0.4,8.5,0.3,12.3c0.1,0.3,0,0.5-0.2,0.7c-1,1.1-1.7,2-3.1,2.9c-1.6,1.1-2.6,2.8-3,5.3
		c-0.6,3.4-0.5,6.2,0.3,8.7l1,2c-1.5-0.8-3-1.2-4.7-1.1c-0.3,0-0.5,0-0.8-0.2c-1.2-0.8-1.1-1.8-1.2-3c-0.2-2.7-0.1-5.1,0.5-7.4
		c0.8-3,4.5-6.5,6.6-8.7c1.6-1.7,1.5-5.6,1.6-7.8C323.9,87.4,324.7,86.2,326.3,85.2L326.3,85.2z"/>
	<path class="st2" d="M151.4,85.9l8.9,0.3c1,0,1.8,0.9,1.7,1.9c-0.1,1.8,0,3.4,0.3,4.9c0.1,0.3,0.2,0.5,0.4,0.7
		c0.5,0.5,0.7,1.3,0.6,2.2c-5.4,4.1-9.5,4-12.4-0.6c-1-1.5-1.4-3.1-1.3-4.6C149.6,88.8,150.2,87.3,151.4,85.9L151.4,85.9z"/>
	<path class="st2" d="M217.4,94.7c-0.3,0.6-0.9,1.2-1.8,1.6c-0.8,0.4-1.4,0.9-1.8,1.4c-2.3,3-2.9,5.8-2.7,9.3c0,0.6-0.4,1.1-1,1.1
		c-0.7,0.1-1.5,0.2-2.2,0.3c-0.8,0.1-1.5,0-2.2-0.3c-1.1-0.4-2.2-0.9-3.4-1.3c-1.1-0.4-2.2,0-2.9,0.9c-1.1,1.6-2.3,3.1-3.5,4.6
		c-0.8,0.9-1.1,2.2-1.1,3.9c0,0.3-0.1,0.5-0.3,0.7c-0.2,0.2-0.5,0.3-0.7,0.3c-0.1-0.5-0.3-1-0.4-1.5c-0.5-1.5-1.9-2.2-2.8-3.4
		c-2.5-3.3,0.2-8.1,3.1-10.3c1.9-1.5,4.4-1.1,6.4-0.3c0.6,0.3,1.3-0.2,1.2-0.9c-0.2-2.2-0.1-4.1,0.4-5.8c0.7-2.6,2.3-4.1,4.7-4.4
		c3.8-0.5,6.5,0.7,8.1,3.6c0.1,0.3,0.4,0.4,0.7,0.4L217.4,94.7L217.4,94.7z"/>
	<path class="st3" d="M296.8,99.3l-3.4,4.2c-0.2,0.2-0.4,0.3-0.7,0.4c-2.6,0.3-5.1,0.2-7.6-0.2c-2.3-0.3-4.2-1.4-5.7-3.2
		c1-0.5,2-0.8,3-0.9c1.4-0.1,2.4-0.3,3-0.5c1.3-0.5,2.6-1.1,3.9-1.8c2.3-1.2,3.2-3.5,3.7-5.8c0.2-0.9,1.3-1.2,2-0.6
		c0.5,0.4,0.8,0.9,1.1,1.5C297.2,95,297.5,97.3,296.8,99.3L296.8,99.3z"/>
	<path class="st0" d="M108.6,114.7c-5.6,2.3-12.1-0.4-14.4-6.2c-2.3-5.7,0.3-12.2,5.9-14.5c5.6-2.3,12.1,0.4,14.4,6.2
		C116.9,105.9,114.3,112.4,108.6,114.7L108.6,114.7z"/>
	<path class="st3" d="M265.1,93.9c4.9,3,8.5,6.9,8.3,12.7c-0.1,1.9-0.8,3.6-2.3,5.2c-2.5,2.7-8.7,8.5-12.7,7.6
		c-3.1-0.7-6.3-6.6-7.3-9.1c-0.2-0.4-0.4-0.5-0.7-0.1c-0.7,1-1.5,1.2-2.7,0.8c-1.8-0.6-3.7-0.8-5.7-0.7l1-0.5
		c0.2-0.1,0.4-0.3,0.5-0.6c0.2-0.7,0.7-1.3,1.3-1.7c1-0.6,2-2,2.2-3.2c0.3-1.4,1-2.6,2.3-3.6c0.8-0.7,1.5-0.5,2.1,0.3
		c2.4,3.8,5.5,5.1,9.2,4c0.2-0.1,0.5-0.2,0.6-0.4c1.5-1.5,2.4-2.7,2.8-3.8C264.8,99.5,265.1,97.2,265.1,93.9L265.1,93.9z"/>
	<path class="st1" d="M223.5,95.2c-0.2,2.8-0.8,5-1.8,6.6c-0.4,0.6-0.9,1-1.6,1.3c-0.7,0.2-1.2,0.6-1.7,1.1
		c-0.1,0.2-0.3,0.2-0.5,0.2c-1.9,0-3.8-0.2-5.6-0.7c-0.3-0.1-0.7,0.2-0.7,0.5l0.1,4.3c0,0.3-0.1,0.5-0.4,0.7
		c-3.2,2.1-6.7,4.5-8.2,8.2c-0.3,0.7-1.1,1.7-2.4,2.9l-4.8,0c-0.3,0-0.5-0.1-0.7-0.3c-0.8-0.7-1.3-1.6-1.6-2.7
		c0.3-0.1,0.5-0.2,0.7-0.3c0.2-0.2,0.4-0.4,0.3-0.7c0-1.7,0.4-3,1.1-3.9c1.2-1.5,2.4-3,3.5-4.6c0.7-0.9,1.8-1.3,2.9-0.9
		c1.2,0.4,2.3,0.9,3.4,1.3c0.7,0.3,1.4,0.4,2.2,0.3c0.7-0.1,1.5-0.2,2.2-0.3c0.6-0.1,1-0.6,1-1.1c-0.1-3.5,0.4-6.4,2.7-9.3
		c0.4-0.5,1-1,1.8-1.4c0.9-0.5,1.4-1,1.8-1.6C219.8,94.3,221.9,94.5,223.5,95.2L223.5,95.2z"/>
	<path class="st3" d="M223.5,95.2c1,3.4,2.1,6.6,3.2,9.6c0.6,1.5,1.3,2.9,2,4.2c0.8,1.3,1.6,2.7,2.3,4.1c0.5,0.9,0.3,1.1-0.5,0.5
		c-5.6-3.8-12.2-2.6-16.3,2.7c-2,2.6-1.2,6.5-0.8,9.5c0,0.3-0.2,0.6-0.5,0.5c-0.9-0.2-1.7-0.5-2.4-1.1c-1.9-1.7-3.8-3-5.8-4
		c-1.3-0.7-2.7-0.6-4.1-0.9c1.3-1.2,2.2-2.2,2.4-2.9c1.4-3.7,5-6.1,8.2-8.2c0.3-0.2,0.4-0.4,0.4-0.7l-0.1-4.3c0-0.3,0.3-0.6,0.7-0.5
		c1.8,0.5,3.7,0.7,5.6,0.7c0.2,0,0.4-0.1,0.5-0.2c0.5-0.5,1-0.9,1.7-1.1c0.7-0.2,1.2-0.7,1.6-1.3C222.7,100.2,223.3,98,223.5,95.2
		L223.5,95.2z"/>
	<path class="st1" d="M110.9,104.5c0,3.6-2.9,6.5-6.5,6.5s-6.5-2.9-6.5-6.5s2.9-6.5,6.5-6.5S110.9,100.9,110.9,104.5L110.9,104.5z"
		/>
	<path class="st1" d="M344.7,112c-0.4,0.7-1.1,1.8-2.4,3.1c-0.5,0.5-1,0.8-1.5,0.7c-2.5-0.2-4.8-1-6.8-2.3c-0.3-0.2-0.5-0.1-0.5,0.2
		l-0.4,3.8c-0.1,0.6-0.4,0.9-1,1c-3.6,0.2-7-0.3-10.4-1.3l-1-2l1.9,1.5c0.2,0.2,0.5,0.2,0.7,0.2c3.1-0.6,6.2-1.4,7.7-4.4
		c0.7-1.4,1.7-2.4,2.7-3.5c0.7-0.7,0.6-1.4-0.3-2c-0.4-0.3-0.4-0.9,0.1-1.1l3.4-1.8c0.7-0.4,1.6,0.2,1.6,1c0,1.8,0.8,3.2,2.3,4.3
		C342.1,110.2,343.4,111.1,344.7,112L344.7,112z"/>
	<path class="st1" d="M307.3,111.6c-0.2,1.3-0.7,2.6-1.5,3.8c-2.2,3.4-4.5,6.3-6.9,8.7c-0.3,0.3-0.8,0.1-0.8-0.3
		c-0.1-2.1,0.2-4.3-0.5-6.4c-0.9-3-2.9-5.3-5.5-7.1c-0.4-0.3-0.3-0.4,0.1-0.4c2.5,0.2,5.1,0.2,7.5-0.5c2.3-0.6,4.7-1.1,7.1-1.4
		c0.4,0,0.6,0.1,0.6,0.5C307.5,109.8,307.4,110.7,307.3,111.6L307.3,111.6z"/>
	<path class="st3" d="M185.9,111.4c0.6,2.4,1.5,4.7,2.9,6.7c1,1.4,2.5,2.3,4,3.2c0.4,0.2,0.3,0.8,0,1c-1.7,0.9-3.2,2.1-4.6,3.5
		c-4.8-1-7.3-3.7-10.9-7.6c-0.9-0.9-1.8-1.1-3-0.9c-0.5-0.7-1.2-1.3-2.2-1.9c4.2-1.2,8-3,11.5-5.3c0.4-0.3,1,0,1.1,0.5l0.2,1.8
		c0,0.2,0.2,0.3,0.3,0.3h0.2c0.2,0,0.3-0.1,0.2-0.3C185.7,112,185.8,111.7,185.9,111.4L185.9,111.4z"/>
	<path class="st3" d="M286.5,111.1l-1.8,0.2c-0.3,0-0.4,0.2-0.5,0.4c-0.1,0.6-0.4,1.1-1,1.3c-0.7,0.3-1.6,0.6-2.5,1
		c-0.9,0.3-1.7,0.7-2.4,1.3c-1.1,0.8-2.2,1.7-3.2,2.7c-0.8,0.8-0.8,1.5-1.3,2.4c-1.5,2.3,1.3,4.4,2.8,5.7c0.5,0.4,1,0.9,1.4,1.5
		c0.5,0.6,0.9,1.1,1.4,1.5l-1.8,0.6c-0.3,0.1-0.5,0-0.7-0.2c-1.9-1.9-4.1-3.1-6.8-3.5c-1.8-0.3-3.6-0.5-5.4-0.7
		c-0.6-0.1-0.9-0.2-1-0.4c-0.1-0.6,0.2-1.2,0.7-1.5c5.3-3.3,8.9-7.6,12.8-12.7c0.2-0.3,0.5-0.4,0.8-0.4c0.7,0,1.4,0.2,2.1,0.4
		c0.1,0,0.2,0.1,0.3,0.1L286.5,111.1L286.5,111.1z"/>
	<path class="st1" d="M286.5,111.1c4.1,1.9,6.8,4.5,8,8c0.5,1.4,0.4,3.3-0.5,5.6c-0.6,1.6-2.4,2.7-2.5,4.3c-0.1,1.7,0,3.2,0.3,4.5
		c0.2,0.9,0,1-0.6,0.3c-2.9-3.4-6.8-4.9-11.7-4.7c-0.5-0.4-0.9-1-1.4-1.5c-0.4-0.5-0.9-1-1.4-1.5c-1.5-1.3-4.2-3.4-2.8-5.7
		c0.5-0.8,0.5-1.6,1.3-2.4c1-0.9,2.1-1.8,3.2-2.7c0.7-0.5,1.5-0.9,2.4-1.3c0.9-0.3,1.7-0.6,2.5-1c0.5-0.2,0.8-0.7,1-1.3
		c0-0.3,0.2-0.4,0.5-0.4L286.5,111.1L286.5,111.1z"/>
	<path class="st2" d="M383.8,132.8l-1.2-3.9c-0.1-0.3-0.1-0.6,0-0.9c0.3-1.1,0.6-1.9,0-3.1c-0.6-1.3-1.3-2.5-2.1-3.7
		c-0.2-0.3-0.5-0.5-0.9-0.6c-1.4-0.3-2.9-0.5-4.3-0.7c-1-0.1-1.9,0.8-2.1,2c-0.1,0.8-0.9,1.4-1.7,1.2c-0.4-0.1-0.8-0.2-1.2-0.2
		c-0.3,0-0.5,0-0.7,0.2c-1,0.5-2.1,0.7-3.2,0.5c-0.3,0-0.5-0.1-0.7-0.3c-0.6-0.6-1.5-1.2-2.7-1.7c-2.2-0.9-3.3-2.9-3.4-5.8
		c2.7-3.7,8.1-5.4,12.1-2.8c2.1,1.4,3.4,3.2,4.1,5.3c0.1,0.2,0.2,0.4,0.5,0.4c5.1,0,9.7,1,10.2,7.1
		C386.6,128.5,385.7,130.8,383.8,132.8L383.8,132.8z"/>
	<path class="st1" d="M313.2,114l1,3.2c0.2,0.5-0.1,1.1-0.7,1.2l-2.9,0.7c-0.3,0.1-0.6-0.2-0.5-0.5l2-4.6
		C312.6,113.1,312.9,113.1,313.2,114L313.2,114z"/>
	<path class="st2" d="M249.8,118.5c0.1,1.4-0.2,2.2-0.9,2.3c-0.3,0.1-0.6,0-0.8-0.2c-0.2-0.2-0.5-0.3-0.8-0.3
		c-0.3,0-0.5,0.1-0.6,0.4c-0.6,1-0.9,2.1-1,3.2c0,0.3-0.2,0.5-0.4,0.6c-0.5,0.3-0.9,0.6-1.3,0.9c-0.5,0.4-0.9,0.9-1.1,1.6
		c-0.4,1-0.8,2-1.3,3c-0.1,0.2-0.3,0.4-0.6,0.5c-0.3,0.1-0.5,0.2-0.7,0.5c-0.1,0.2-0.3,0.3-0.5,0.5c-1,0.6-2,0.8-3.1,0.6
		c-0.3-0.1-0.6,0-0.9,0.2c-1.9,1.2-3.5,1.1-4.9-0.2c-0.2-0.2-0.5-0.4-0.9-0.4c-1.3-0.2-2.4-0.1-3.2,0.4c-0.5,0.3-0.9,0.6-1.2,1.2
		c-0.3,0.6-0.7,1.1-1.1,1.6c-0.8,0.9-1.2,2.4-1.5,3.6c-0.1,0.2-0.2,0.4-0.5,0.5c-0.3,0.1-0.6,0.1-1,0c-0.3-0.3-0.6-0.5-1-0.6
		c-2.1-1.8-3.1-4.1-2.8-6.9c0-0.3,0.2-0.5,0.4-0.6l1.6-0.8c0.5-0.2,0.6-0.8,0.3-1.2c-0.4-0.6-0.9-1.1-1.3-1.7
		c-1.9-2.5-1.6-6.2,0.3-8.5c2.8-3.3,10.2-3.4,12.5,0.4c0.5,0.9,1.3,1.7,2.1,2.4c0.2,0.2,0.6,0.1,0.7-0.2
		C236.9,114.6,245.2,112.2,249.8,118.5L249.8,118.5z"/>
	<path class="st1" d="M359.6,115.8c0.1,2.9,1.2,4.9,3.4,5.8c1.2,0.5,2.1,1.1,2.7,1.7c0.2,0.2,0.4,0.3,0.7,0.3c1.1,0.2,2.2,0,3.2-0.5
		c0.2-0.1,0.5-0.2,0.7-0.2c0.4,0,0.8,0.1,1.2,0.2c0.8,0.2,1.6-0.3,1.7-1.2c0.2-1.2,1.1-2.1,2.1-2c1.5,0.2,2.9,0.4,4.3,0.7
		c0.4,0.1,0.7,0.3,0.9,0.6c0.8,1.1,1.5,2.4,2.1,3.7c0.5,1.1,0.3,2,0,3.1c-0.1,0.3-0.1,0.6,0,0.9l1.2,3.9l-2,1.4
		c-4.4-0.1-8.5,0.7-12.5,2.4c-1,0.4-1.5,0.1-1.6-0.9c-0.1-1.4-0.3-2.9-0.5-4.3c0-0.1-0.1-0.2-0.2-0.2c-0.1-0.1-0.2-0.2-0.3-0.3
		c-0.5-1.5-1-2.8-1.7-3.9c-0.6-1.1-1.5-1.8-2.7-2.3c-0.9-0.7-1.9-1.4-3.1-2.3c-0.6-0.4-0.9-1-1-1.7
		C358.1,118.8,358.5,117.2,359.6,115.8L359.6,115.8z"/>
	<path class="st1" d="M174.3,117.2c1.2-0.2,2.1,0,3,0.9c3.6,3.8,6.1,6.6,10.9,7.6c-2.6,3.5-2.9,7.6-3,12c0,0.2-0.1,0.3-0.3,0.4
		c-0.1,0-0.2,0-0.3-0.1c0,0-0.1-0.1-0.1-0.1c-1.8-3.9-4.9-5.8-9.2-5.8c-0.5,0-0.8-0.4-0.8-0.9c0.3-2.2,0.5-4.3-0.6-6.4
		c-1-1.9-1.9-3.8-2.7-5.7c-0.2-0.4,0-0.9,0.4-1L174.3,117.2L174.3,117.2z"/>
	<path class="st2" d="M159.5,121.3c-0.5,0.9-0.5,2.1-0.2,3.8c0.5,2.4-0.7,4.6-3.3,5c-1.6,0.2-3.1,0.6-4.5,1.1
		c-0.6,0.2-1.1,0.6-1.3,1.2c-0.3,0.7-0.6,1.3-1.1,1.9c-2.4,2.8-5.4,5-8.8,6.7c-0.6-0.7-1.2-1.4-1.8-2.1c-2.4-2.6-3.2-5.8-2.5-9.3
		c0.9-4.3,7-8.2,11.3-5.4c0.2,0.2,0.4,0.1,0.5-0.2c1.4-4.9,4.6-6.5,9.6-4.9C158.4,119.5,159.1,120.2,159.5,121.3L159.5,121.3z"/>
	<path class="st1" d="M249.8,118.5c1.8,4,1.4,7.8-1.3,11.2c-0.2,0.3-0.2,0.7,0,1c0.4,0.6,0.8,1.1,1.3,1.7c2.4,2.5,0.2,6.7-0.9,9.3
		c-0.6,1.4-0.4,2.9-0.2,4.4c0,0.2,0,0.3-0.1,0.4c-0.1,0.1-0.2,0.1-0.3,0.1c-0.2,0-0.2-0.1-0.3-0.3c0-0.1-0.1-0.2-0.2-0.2
		c-0.1,0-0.2,0-0.2,0l-3,1.7c-3.6,0.9-6.6,0.7-9.1-0.6c-3.7-1.9-8.4-4.7-14.1-8.5c0.4,0.1,0.7,0.1,1,0c0.2-0.1,0.4-0.2,0.5-0.5
		c0.3-1.2,0.7-2.6,1.5-3.6c0.4-0.5,0.8-1,1.1-1.6c0.3-0.5,0.7-0.9,1.2-1.2c0.9-0.5,2-0.6,3.2-0.4c0.3,0.1,0.6,0.2,0.9,0.4
		c1.4,1.4,3,1.4,4.9,0.2c0.3-0.2,0.6-0.2,0.9-0.2c1,0.2,2,0,3.1-0.6c0.2-0.1,0.4-0.3,0.5-0.5c0.2-0.3,0.4-0.4,0.7-0.5
		c0.3-0.1,0.5-0.2,0.6-0.5c0.5-1,0.9-2,1.3-3c0.3-0.7,0.6-1.2,1.1-1.6c0.4-0.3,0.9-0.7,1.3-0.9c0.2-0.1,0.4-0.4,0.4-0.6
		c0.1-1.1,0.4-2.2,1-3.2c0.1-0.2,0.4-0.4,0.6-0.4c0.3,0,0.6,0.1,0.8,0.3c0.2,0.2,0.5,0.3,0.8,0.2
		C249.6,120.6,249.9,119.9,249.8,118.5L249.8,118.5z"/>
	<path class="st3" d="M326.2,132.8c-2.8-2.9-4.9-6.4-6-10.3c-0.1-0.3,0-0.6,0.2-0.8c2.9-3,9-0.1,11.7,2c0.8,0.6,1,1.8,0.4,2.7
		c-1.6,2.3-3.5,4.5-5.6,6.5C326.7,132.9,326.4,132.9,326.2,132.8L326.2,132.8z"/>
	<path class="st3" d="M159.5,121.3c1.4,0.3,2.9,0.2,4.7-0.2c0.5-0.1,1.2,0.1,2,0.5c3.3,1.9,4.1,6.9,3.4,10.3
		c-0.1,0.3-0.2,0.5-0.4,0.7l-5.7,4.4c-0.4,0.3-0.9,0.5-1.4,0.4c-2.7-0.3-5.3-0.4-7.7-0.3c-2.8,0.1-4.3,4.7-4.3,6.8
		c0,2.2,0.1,4.6,0.4,7.3c0,0.4-0.3,0.8-0.7,0.8l-5.2-0.2c-0.5,0-0.9-0.3-1.1-0.6c-2-3.2-3-6.6-3.1-10.3c3.4-1.6,6.4-3.9,8.8-6.7
		c0.5-0.6,0.9-1.2,1.1-1.9c0.2-0.6,0.7-1,1.3-1.2c1.4-0.5,2.9-0.8,4.5-1.1c2.6-0.4,3.9-2.6,3.3-5C159,123.4,159.1,122.1,159.5,121.3
		L159.5,121.3z"/>
	<path class="st2" d="M353.2,127.9c0.7,0.3,0.8,0.8,0.4,1.4c-0.1,0.2-0.2,0.5-0.2,0.7c0.1,1.2,0.3,2.4,0.4,3.5c0.1,0.5,0,0.8-0.3,1
		c-0.3,0.3-0.4,0.4-0.4,0.5c-1.2,1.8-2.8,3.1-4.6,3.8c-2.7,1-5.5,1.9-8.6,2.6c-1,0.2-1.9,0-2.7-0.7c-1.4-1.2-2.8-2.5-4.2-3.9
		c-0.4-0.4-0.5-0.9-0.4-1.4c0.6-2,2.3-2.8,3.5-4.3c0.6-0.8,1.3-1.5,1.9-2.3c-0.5-2.3,0-4.2,1.5-5.5c1.2-1.1,2.8-1.6,4.8-1.4
		C348.2,122.2,351.2,124.2,353.2,127.9L353.2,127.9z"/>
	<path class="st2" d="M330.9,148.8c-1-0.2-1.9-0.4-2.8-0.5c-1.1-0.2-2-0.5-2.8-0.9c-0.8-0.4-1.6-0.8-2.4-1.2c-1.5-0.7-0.9-1.9-1.6-3
		c-0.5-0.8-1.2-1.4-2-1.9c-0.2-0.1-0.4-0.3-0.6-0.6l-0.7-1.3c-0.1-0.3-0.4-0.4-0.6-0.4c-0.6,0-1.3,0.1-1.9,0.3
		c-1.8,0.6-3.8,0.8-5.7,1.1c-3.2,0.5-6.1,3.1-8.1,5.4c-0.2,0.2-0.4,0.3-0.6,0.4c-0.8,0.2-1.6,0-2.3-0.4c-0.1-0.3-0.2-0.4-0.5-0.4
		c-0.2,0-0.4-0.1-0.6-0.3c-0.7-0.9-1-1.8-0.8-2.5l4.1-2c0.5-0.2,0.5-0.9,0.1-1.1c-1.6-1.2-3.4-1.9-3.8-4.2c-0.7-4.5,2.5-6.5,6.4-6.7
		c1.2-0.1,1.6-0.9,2.1-1.7c2.1-3.3,4.3-3.6,7.9-3.1c1.9,0.3,3.5,1.6,4.7,4.1c1.2,2.6,1.8,4.7,1.7,6.3c0,0.3,0.1,0.5,0.5,0.5
		c1.6,0,2.7,1.3,2.4,2.9c-0.1,0.5-0.2,1.1-0.1,1.6c0,0.4-0.2,0.6-0.5,0.7c-0.4,0-0.6,0.2-0.6,0.6c-0.1,0.4,0.3,0.8,0.7,0.6
		c2-0.7,4.3-0.4,6.7,0.8C331.4,142.9,331.5,146.6,330.9,148.8L330.9,148.8z"/>
	<path class="st3" d="M255.2,125.7l0.7-1.8c0.1-0.1,0.2-0.2,0.3-0.1l3.8,1.6c0.2,0.1,0.2,0.3,0.1,0.4l-4.5,5.6
		c-0.2,0.2-0.5,0.1-0.5-0.2L255.2,125.7C255.1,125.7,255.1,125.7,255.2,125.7L255.2,125.7z"/>
	<path class="st3" d="M362.4,124.6c1.2,0.4,2.1,1.2,2.7,2.3c0.6,1.1,1.2,2.4,1.7,3.9c0,0.1,0.1,0.2,0.3,0.3c0.1,0.1,0.1,0.1,0.2,0.2
		c0.2,1.4,0.4,2.9,0.5,4.3c0.1,1.1,0.6,1.4,1.6,0.9c4-1.7,8.1-2.6,12.5-2.4l-2.1,1.4c-0.2,0.2-0.3,0.4-0.2,0.6
		c0.6,1.7,1.1,3.5,1.4,5.4c0.6,3.1,0.2,5.6-1.4,7.7c-0.2,0.3-0.6,0.3-0.8,0.1c-3.3-2.4-7.1-3.4-11.3-2.9c-0.3,0-0.4-0.1-0.3-0.4
		c1.1-3.4,1.3-6.2,0.6-8.4c-0.5-1.7-0.8-3.3-0.8-5c0-0.2,0-0.4-0.1-0.5L362.4,124.6L362.4,124.6z"/>
	<path class="st2" d="M213.2,138.6l0.6,2.3c0.5,1.2,0.4,2.1-0.2,2.7c-0.2,0.2-0.5,0.2-0.7,0.2c-2.5-0.5-4.5-1.7-7-2.1
		c-3.4-0.4-5.9-1.1-9.3,0.4c-1.1,0.5-2.7,0.6-4.6,0.2c-2.4-3.5-2.6-8.1-1.3-12c1.7-5.3,13-6.2,14-0.2c0.2,1.1,0.8,1.6,2,1.5
		c0.3,0,0.5-0.2,0.5-0.5l0.5-2c0.1-0.5,0.4-0.7,0.9-0.5l2.9,0.9c0.5,0.2,0.7,0.5,0.6,1.1C211.5,133,211.9,135.6,213.2,138.6
		L213.2,138.6z"/>
	<path class="st1" d="M360,149.5c-4.7-0.2-9.5-0.5-14.3-0.9c-2.3-0.2-5,0.2-7.7,0.1c-1.2,0-2.1-0.9-2.6-2.6c-0.8-3.2-2.4-6-4.9-8.4
		c-0.5-0.5-0.7-1.2-0.5-1.9c1-4,3.7-6.3,8.1-7c-0.7,0.8-1.3,1.5-1.9,2.3c-1.2,1.5-2.9,2.3-3.5,4.3c-0.1,0.5,0,1,0.4,1.4
		c1.4,1.4,2.8,2.7,4.2,3.9c0.8,0.7,1.7,0.9,2.7,0.7c3.1-0.7,5.9-1.5,8.6-2.6c1.8-0.7,3.4-2,4.6-3.8c0,0,0.2-0.2,0.4-0.5
		c0.2-0.2,0.3-0.6,0.3-1c-0.2-1.2-0.3-2.4-0.4-3.5c0-0.3,0-0.5,0.2-0.7c0.4-0.6,0.3-1.1-0.4-1.4c4.1-1.2,6.9,0.1,8.4,3.9
		c0.8,2-0.5,3.5-1.7,4.8c-0.2,0.2-0.2,0.5,0.1,0.7C364.2,140.5,363.9,146.1,360,149.5L360,149.5z"/>
	<path class="st2" d="M275.9,135.8c-0.3,0.9-0.5,1.8-0.7,2.7c-0.3,1.1-0.6,2-1.1,2.7c-0.7,1-1.9,1.9-3.4,2.4
		c-1.2,0.5-2.3,0.4-3.5-0.2c-2.3-1.1-4-2.6-5-4.5c-0.4-0.9-0.6-1.9-0.5-3.2c0.1-1.1,0.2-2.1,0.3-3.2c1.8-1.8,3.9-2.4,6.4-1.8
		C272.2,131.7,273.3,133.8,275.9,135.8L275.9,135.8z"/>
	<path class="st1" d="M262.1,132.6c-0.1,1-0.2,2.1-0.3,3.2c-0.1,1.3,0,2.3,0.5,3.2c1,1.9,2.6,3.4,5,4.5c1.2,0.6,2.3,0.6,3.5,0.2
		c1.5-0.6,2.6-1.4,3.4-2.4c0.5-0.7,0.9-1.6,1.1-2.7c0.2-0.9,0.5-1.8,0.7-2.7c5.2-3,9.7-2,13.6,3l-2.5,1.3c-0.2,0.1-0.4,0.3-0.6,0.5
		c-0.4,0.6-0.7,1.3-1,2.2c-0.5,1.5-1.3,2.9-2.4,4.3c-0.9,1.1-1,1.8-1.1,3.1c-0.1,1.9-1.1,3.6-2.6,4.7c-0.7,0.5-1.6,0.9-2.8,1.2
		c-2.6,0.7-5,1.6-7.3,2.6c-1.9-3.7-4.8-5.5-8.7-5.2c-2.3,0.2-4.2,0.8-5.7,1.7c-0.2,0.2-0.4,0.1-0.4-0.2c-0.1-1.4-0.1-2.8-0.1-4.3
		c0-2.2-0.2-5.1-0.5-8.6c-0.2-1.6,0.8-2.8,1.8-3.9c1.1-1.4,2.4-2.1,4-2.1c0.3,0,0.5-0.2,0.6-0.5
		C260.6,134.6,261.3,133.5,262.1,132.6L262.1,132.6z"/>
	<path class="st3" d="M321.5,139.5c-0.3,0-0.7-0.7-0.8-1.8c-0.1-1,0-1.8,0.3-1.9c0.3,0,0.7,0.7,0.8,1.8
		C321.9,138.7,321.8,139.5,321.5,139.5L321.5,139.5z"/>
	<path class="st2" d="M181.4,140.3c0.1,0.4,0.1,0.7,0,0.9c-0.1,0.2-0.3,0.3-0.7,0.4c-0.5,0.1-1,0.3-1.4,0.5
		c-0.2,0.1-0.4,0.3-0.5,0.5c-0.6,1.4-1.7,2.5-3.2,2.9c-3,0.8-4.2,3.9-4.5,6.8c-0.2,1.4-1,2.6-2.5,2.9c-0.3,0.1-0.6,0.2-0.8,0.4
		l-11.7,9c-0.2,0.2-0.3,0.4-0.4,0.7c-0.2,1.2-1.1,1.7-2.8,1.6c-4-0.4-4.5-4.8-4.4-8.2c0.1-3.1,2.6-5.4,5.4-6.2
		c0.3-0.1,0.3-0.2,0.2-0.5c-1.3-3.1-1.2-5.9,0.4-8.3c1.3-2,3-3,5.1-2.9c2,0,3.4,1.6,5,2.5c0.3,0.2,0.6,0,0.7-0.3
		c0.9-4.1,3.4-5.9,7.5-5.4c0.8,0.1,1.5,0.3,2.2,0.7C177.2,139.6,179.4,138.5,181.4,140.3L181.4,140.3z"/>
	<path class="st3" d="M220.5,138.1c0.4,0.1,0.8,0.3,1,0.6c5.7,3.7,10.4,6.6,14.1,8.5c2.5,1.3,5.5,1.5,9.1,0.6
		c-1.9,0.8-3.7,1.5-5.5,2.1c-0.9,0.3-1.7,0.2-2.5,0.3c-0.3,0-0.5-0.1-0.7-0.2c-3.4-1.9-7-3.4-10.7-4.3c-1.2-0.3-2.3,0.1-3.2-1.3
		C221,142.5,220.4,140.4,220.5,138.1L220.5,138.1z"/>
	<path class="st3" d="M213.2,138.6c0.7,1.2,1.7,2.2,3.1,3c1.4,0.9,2,2.2,1.8,3.8l-4.2-4.5L213.2,138.6L213.2,138.6z"/>
	<path class="st3" d="M289.4,138.8c1,1.3,1.4,2.8,1,4.3c-0.1,0.3-0.2,0.4-0.5,0.5c-1,0.4-1.9,1.2-2.5,2.3c-0.1,0.3-0.1,0.5,0,0.8
		c1.1,2.3,3.1,6.9,2,9.3c0,0-0.6,0.9-1.7,2.6c-0.9,1.4-1.8,2.7-2.8,4c-0.2,0.2-0.4,0.3-0.7,0.2c-4.2-1.3-8.9-2.6-13.3-2.2
		c-0.2,0-0.5,0-0.6-0.2c-0.4-0.4-0.8-0.9-1.1-1.6c2.3-1,4.8-1.9,7.3-2.6c1.1-0.3,2-0.7,2.8-1.2c1.5-1.1,2.4-2.8,2.6-4.7
		c0.1-1.3,0.2-2.1,1.1-3.1c1.2-1.4,2-2.8,2.4-4.3c0.3-0.9,0.6-1.6,1-2.2c0.1-0.2,0.3-0.4,0.6-0.5L289.4,138.8L289.4,138.8z"/>
	<path class="st2" d="M122.2,149.7c-0.3,1.4-1.3,2.3-2.8,2.6c-1,0.2-1.9,0.1-2.8-0.2c-1.4-0.5-2.8-0.3-3.9,0.8c-1,0.9-1.9,1.9-2.6,3
		c-0.7,1.1-1.3,2.4-1.6,3.9c-0.5,1.7-1.1,3.5-2,5.2c-0.6,1.2-1,3.3-1.2,6.5c-2.9,2.4-5.7,2.2-8.4-0.5c-2.2-2.2-2.9-4.9-2.2-8.1
		c0.6-2.8,4.1-4.4,6.5-5.7c0.2-0.1,0.3-0.4,0.1-0.6c-2.9-2.9-4.5-9-1.2-12.3c2.3-2.2,6.2-2.3,8.8-0.3c0.2,0.1,0.5,0,0.5-0.2
		c0.5-2.2,1.7-4.4,4.3-4.8c2.8-0.4,5.2,0.3,7.1,2.2C122.6,143.2,122.4,146.9,122.2,149.7L122.2,149.7z"/>
	<path class="st1" d="M330.9,148.8l-1.3,1.1c-2,0.6-4,0.5-6-0.3c-1-0.4-1.9-0.4-2.7,0.1c-3.3,1.9-8.3,4.5-11.9,4.2
		c-0.3,0-0.6-0.1-0.9-0.3c-4.2-3-7.9-2.8-12.6-2c-0.4,0.1-0.6-0.1-0.5-0.5c0.1-0.7,0.5-1,0.6-1.7c0.3-2.1-0.1-4.1-1.1-5.8
		c0.8-0.5,1.6-0.8,2.3-1c-0.2,0.8,0.1,1.6,0.8,2.5c0.2,0.2,0.3,0.3,0.6,0.3c0.3,0,0.4,0.1,0.5,0.4c0.7,0.5,1.5,0.6,2.3,0.4
		c0.2,0,0.5-0.2,0.6-0.4c2.1-2.3,5-4.9,8.1-5.4c1.9-0.3,3.8-0.5,5.7-1.1c0.6-0.2,1.2-0.3,1.9-0.3c0.3,0,0.5,0.1,0.6,0.4l0.7,1.3
		c0.1,0.2,0.3,0.4,0.6,0.6c0.8,0.5,1.5,1.1,2,1.9c0.7,1.1,0.1,2.3,1.6,3c0.8,0.4,1.6,0.8,2.4,1.2c0.7,0.4,1.6,0.7,2.8,0.9
		C329,148.4,330,148.5,330.9,148.8L330.9,148.8z"/>
	<path class="st1" d="M181.4,140.3c1.2,0.5,1.6,1.3,1.2,2.2c-1.1,2.9-1.9,6.1-2.1,9.7c-0.1,1.4,0,2.7,0.5,3.8c0.1,0.3,0,0.4-0.3,0.5
		c-3.9,0.3-9.6,1.6-12.3,4.7c-1.2,1.4-2.4,2.9-3.4,4.7c-0.3,0.4-0.7,0.8-1.2,0.9c-3.5,0.7-7.1,0.8-10.8,0.2c1.6,0.1,2.6-0.4,2.8-1.6
		c0-0.3,0.2-0.5,0.4-0.7l11.7-9c0.3-0.2,0.5-0.3,0.8-0.4c1.5-0.4,2.3-1.5,2.5-2.9c0.3-2.8,1.5-6,4.5-6.8c1.5-0.4,2.6-1.5,3.2-2.9
		c0.1-0.2,0.3-0.4,0.5-0.5c0.5-0.2,0.9-0.4,1.4-0.5c0.4-0.1,0.6-0.2,0.7-0.4C181.5,141,181.5,140.7,181.4,140.3L181.4,140.3z"/>
	<path class="st1" d="M213.8,140.9l4.2,4.5c0.4,0.5,0.6,1,0.5,1.6c0,0.3-0.1,0.5-0.4,0.7c-2.6,1.8-5.4,3-5.6,6.6
		c-0.1,1.2-0.6,2.1-1.6,2.6l-3.3-0.1c-0.3,0-0.5-0.1-0.7-0.3c-0.2-0.2-0.5-0.3-0.8-0.2c-1.2,0.4-3.6,0.1-4.9,0.1
		c-0.3,0-0.7,0.2-0.8,0.5c-0.5,0.8-0.9,1.6-1.3,2.5c-1.4,2.7-3.6,4.3-6.5,4.8c-0.3,0.1-0.6,0.2-0.9,0.5c-0.3,0.3-0.5,0.5-0.6,0.4
		c-0.4-0.2-0.5-0.5-0.2-0.8c0.7-1,0.7-1.9,0-2.7c-1.5-1.6-2.9-3.2-4.2-4.9c-1.5-1.8-1.1-6.3-0.7-8.6c0.5-3.6,2.5-5.5,5.9-5.9
		c1.9,0.3,3.5,0.3,4.6-0.2c3.4-1.5,5.9-0.8,9.3-0.4c2.5,0.3,4.5,1.6,7,2.1c0.3,0,0.5,0,0.7-0.2C214.2,143,214.3,142.1,213.8,140.9
		L213.8,140.9z"/>
	<path class="st1" d="M134.1,142l4.9,10c0.1,0.3,0.1,0.3-0.2,0.3c-3.1-0.8-6.3-0.7-9.5,0.1c-0.2,0.1-0.4,0.2-0.5,0.4
		c-0.1,0.1-0.1,0.1-0.2,0.2c-0.3,0.1-0.5,0-0.5-0.3l-0.6-6.8L134.1,142L134.1,142z"/>
	<path class="st3" d="M294.6,143.5c1,1.7,1.4,3.6,1.1,5.8c-0.1,0.7-0.5,1.1-0.6,1.7c-0.1,0.4,0.1,0.6,0.5,0.5
		c4.8-0.8,8.5-1.1,12.6,2c0.3,0.2,0.6,0.3,0.9,0.3c3.6,0.3,8.6-2.3,11.9-4.2c0.8-0.5,1.7-0.5,2.7-0.1c2,0.8,4,0.9,6,0.3
		c-0.5,0.5-1.2,0.9-1.9,1.2c-0.3,0.1-0.6,0.4-0.8,0.6c-1.6,1.9-3.3,3.2-5,3.9c-3.3,1.3-6.3,3.7-9.2,5.7c-0.3,0.2-0.8,0.1-1-0.3
		c-1.1-2.7-2.9-4.8-5.2-6.3c-3.7-2.4-8.5-2-12.3-0.3c-0.4,0.2-0.5,0-0.5-0.3c0-2.1,0-5,0-8.8C293.7,144.3,294,143.7,294.6,143.5
		L294.6,143.5z"/>
	<path class="st0" d="M414.1,171.7c-3.6-2.3-8.4-4.6-9.3-9.3c-1.5-7.8,1.3-13.2,8.4-16.4c3.9-1.7,8.3-1.4,11.9,0.8
		c1.6,1,3.5,1.2,4.9,2.4c2.8,2.5,4.4,5.7,4.6,9.5C435.4,169.3,423.8,177.8,414.1,171.7L414.1,171.7z"/>
	<path class="st3" d="M360,149.5c-1.2,1.6-2.6,2.6-4.2,3c-1.2,0.3-2.5,0.2-3.9-0.3c-4.7-1.8-9.7-2.1-14,0.9
		c-0.9,0.6-2.1,0.4-2.8-0.4c-0.2-0.2-0.2-0.4-0.1-0.7c0.7-1.8,0.8-3.7,0.5-6c0.5,1.7,1.4,2.6,2.6,2.6c2.7,0.1,5.3-0.3,7.7-0.1
		C350.5,148.9,355.2,149.2,360,149.5L360,149.5z"/>
	<path class="st1" d="M424.8,153.4l1.6,0.1c0.3,0,0.7,0.1,0.9,0.3c3.1,2.5,3.4,5.4,0.8,8.6c-0.2,0.2-0.3,0.5-0.3,0.7
		c-0.1,1.2,0.1,2.3-0.3,3.4c-0.6,1.2-1.5,2-2.9,2.4c-2.9,0.8-6.5,1.2-8.2-1.6c-0.8-1.3-0.6-3.4-2.9-3.1c-2.7,0.3-4.1-3.1-4.4-5.2
		c-0.8-5.3,2.6-8.5,7.3-9.6c2.4-0.6,4.6-0.2,6.6,1.2c0.2,0.2,0.4,0.4,0.5,0.7l0.5,1.5C424.2,153.2,424.5,153.4,424.8,153.4
		L424.8,153.4z"/>
	<path class="st1" d="M122.2,149.7c0.2,0.7,0.9,1,2.1,1c0.6,0,1.2,0.5,1.2,1.1c0.2,2.7-0.2,5.4-1.3,8.2c-0.1,0.2-0.3,0.3-0.6,0.3
		c-2.1-0.6-5.4-1.2-7.6-0.4c-1.5,0.5-2.4,2-3.4,3.3c-0.6-0.8-1-1.7-1.3-2.7c-0.1-0.2-0.2-0.4-0.4-0.5l-0.8-0.4
		c-0.4-0.2-0.9,0.1-1,0.5l-0.8,7.1c0,0,0,0.1-0.1,0.1c-0.1,0-0.2,0-0.3,0.1c-0.1,0-0.2,0.1-0.2,0.2c-1.1,2.7-0.4,5.5,2.3,8.3
		c-1.7,0.3-2.8-0.2-3.2-1.4c-0.6-1.8-1.3-2.8-2-3.1c0.2-3.1,0.6-5.3,1.2-6.5c0.9-1.8,1.6-3.5,2-5.2c0.4-1.5,0.9-2.8,1.6-3.9
		c0.7-1.1,1.6-2.1,2.6-3c1.2-1,2.5-1.3,3.9-0.8c0.9,0.3,1.9,0.4,2.8,0.2C120.9,152,121.8,151.2,122.2,149.7L122.2,149.7z"/>
	<path class="st2" d="M234,158.1l-1.8,8.4c-0.1,0.3-0.2,0.5-0.4,0.7c-0.9,1-1.9,1.7-2.9,2c-1.6,0.6-3.7,0.6-6,0.2
		c-1.2-0.2-2-0.9-2.4-2c-0.2-0.7-1-0.9-1.6-0.4c-2.1,1.9-4.1,3.8-6.1,5.6c-0.9,0.9-2.1,1.7-3.4,2.5c-1.2,0.7-2.4,1.5-3.5,2.3
		c-2.4-3.1-3.1-6.7-2.1-10.6c1.3-5.1,6.2-7.5,11.2-6.7c0.5,0.1,0.9-0.3,0.8-0.8c-0.2-2.4,0.3-4.8,2.2-6.3
		C224.2,148.4,231.4,151,234,158.1L234,158.1z"/>
	<path class="st3" d="M248.6,150.7c0.6-0.1,0.9,0.1,0.9,0.7l0.5,5.3c0,0.5-0.3,1-0.8,1.2c-2.6,0.7-5.2,1.7-7.8,2.9
		c-0.7,0.3-1.6-0.1-1.7-0.9l-0.4-2.6c-0.1-0.4-0.3-0.7-0.5-1c-1.2-1-2.2-2-3-3.1c-0.4-0.5,0-1.2,0.6-1.2
		C240.2,151.9,244.3,151.5,248.6,150.7L248.6,150.7z"/>
	<path class="st2" d="M376.6,155.1c-1.9,1.4-3.1,3.1-3.8,4.9c-0.7,2-1.1,3-1.1,3c-0.8,1.6-1.6,3.2-2.4,4.8c-0.3,0.7-1,1.1-1.8,1.1
		c-1.1,0-2.1,0-3.1,0c-0.4,0-0.9-0.2-1.3-0.4c-0.4-0.2-0.8-0.5-1.2-0.8c-0.2-0.2-0.3-0.4-0.3-0.6c-0.2-1.6-0.5-3.3-0.9-4.9
		c-0.2-0.6-0.2-1.3-0.2-2.1c0-0.7,0.2-1.3,0.6-2c0.4-0.7,0.9-1.5,1.3-2.3c0.1-0.2,0.1-0.4,0-0.5c0.2-0.1,0.3-0.2,0.3-0.5
		c0.2-1,0.4-1.9,0.8-2.7C368.9,150.8,373.3,151.8,376.6,155.1L376.6,155.1z"/>
	<path class="st3" d="M363.5,152.2c-0.3,0.8-0.6,1.7-0.8,2.7c0,0.3-0.2,0.4-0.3,0.5c-0.5,0.1-0.7-0.1-0.7-0.5c0.1-1.1,0.1-1.9,0-2.5
		L363.5,152.2L363.5,152.2z"/>
	<path class="st1" d="M361.7,152.4c0.1,0.6,0.1,1.4,0,2.5c0,0.4,0.2,0.6,0.7,0.5c0.2,0.1,0.2,0.2,0,0.5c-0.5,0.8-0.9,1.6-1.3,2.3
		c-0.4,0.6-0.6,1.3-0.6,2c0,0.8,0,1.5,0.2,2.1c0.4,1.6,0.7,3.2,0.9,4.9c0,0.3,0.2,0.5,0.3,0.6c0.4,0.3,0.8,0.5,1.2,0.8
		c0.4,0.2,0.9,0.3,1.3,0.4c1,0.1,2.1,0.1,3.1,0c0.7,0,1.4-0.5,1.8-1.1c0.8-1.5,1.6-3.1,2.4-4.8c0,0,0.4-1,1.1-3
		c0.7-1.8,1.9-3.5,3.8-4.9c1.4,2,2.1,4.2,2.1,6.7c0.1,2.6-1.8,3.3-3.9,3.9c-1.2,0.3-1.2,0.7,0,1.1c2.2,0.7,3.9,2.2,5,4.5
		c2.4,5-1,7.9-4.4,10.8c-0.7,0.6-1.8,0.4-2.3-0.4c-0.8-1.3-1.9-2-3.2-2.2c-0.3,0-0.6-0.2-0.9-0.4c-2.3-2.2-4.8-5.3-8.3-4.9
		c-2.2,0.2-4.2,0.9-5.8,2c-0.2,0.1-0.5,0-0.4-0.2l0.3-4.1c0-0.3,0.1-0.6,0.3-0.8c0.7-1.1,1.4-2.3,1.9-3.5c2.2-4.8,0.1-8.1-2.4-12.2
		c-0.2-0.3-0.1-0.5,0.2-0.6L361.7,152.4L361.7,152.4z"/>
	<path class="st2" d="M348.9,170.4l-15.2-0.7c-0.3,0-0.5-0.1-0.8-0.2l-3.7-2c-0.5-0.3-0.9-0.8-0.9-1.4c0-1.8,0.4-4,2.2-5.1
		c1.3-0.8,2.5-0.7,3.6,0.2c0.2,0.2,0.5,0.2,0.8,0.2c0.8-0.1,1.5-0.3,2.3-0.8c0.9,0.6,1.6,0.4,2.1-0.5c1.4-2.5,2.3-5.9,6.2-4.9
		c3.1,0.8,5.3,2.6,6.7,5.5C354.2,165.1,351.8,167.3,348.9,170.4L348.9,170.4z"/>
	<path class="st1" d="M337.1,160.6c-0.7,0.5-1.5,0.7-2.3,0.8c-0.3,0-0.5-0.1-0.8-0.2c-1.1-0.9-2.3-0.9-3.6-0.2
		c-1.8,1.1-2.2,3.2-2.2,5.1c0,0.6,0.3,1.2,0.9,1.4l3.7,2c0.2,0.1,0.5,0.2,0.8,0.2l15.2,0.7c0.1,0.2,0.2,0.4,0.3,0.6
		c-0.2,0-0.3,0.1-0.4,0.2c-0.3,0.2-0.5,0.3-0.9,0.2c-1.9-0.1-4-0.3-6.4-0.6c-3.1-0.3-6-0.5-8.7-0.5c-0.3,0-0.5,0.3-0.4,0.6
		c1.8,3.4,2.3,6.3,1.6,8.7c-4.3-1.1-8.3-1.3-12-0.6c-0.3,0.1-0.4-0.1-0.4-0.4c0.6-4.2-0.4-8-3.1-11.4c-0.3-0.4-0.4-1-0.1-1.4
		c1.3-2.4,3-4.2,5.1-5.4c0.2-0.1,0.5-0.2,0.7-0.1c0.2,0,0.4,0,0.5,0c0.4-0.1,0.5-0.3,0.5-0.7c-0.2-2.8,1.2-4.2,4.2-4.2
		C333.4,155.3,335.9,157,337.1,160.6L337.1,160.6z"/>
	<path class="st3" d="M211,157c-2,0.4-3.9,0.2-5.9,0.6c-1.6,0.4-3,1.3-4.2,2.6c-1.3,1.5-2.6,2.9-3.9,4.3c-0.1,0.1-0.2,0.2-0.4,0.3
		c-0.1,0.1-0.2,0.2-0.2,0.3c0,0.3-0.2,0.4-0.4,0.3l-4.2-0.7c0.2-0.3,0.5-0.5,0.9-0.5c2.9-0.5,5.1-2.1,6.5-4.8
		c0.4-0.8,0.9-1.7,1.3-2.5c0.2-0.3,0.5-0.5,0.8-0.5c1.3,0,3.6,0.3,4.9-0.1c0.3-0.1,0.6,0,0.8,0.2c0.2,0.2,0.4,0.3,0.7,0.3L211,157
		L211,157z"/>
	<path class="st2" d="M139.4,160l-2.2,6.3c-0.2,0.6-0.8,1-1.4,0.9l-7.9-0.3c-0.9,0-1.6,0.6-1.8,1.5c-0.4,2-0.6,4-0.6,6.1
		c0,0.3-0.2,0.4-0.4,0.5l-4,0.5c-2.2-1.7-5.2-4.7-4.5-7.6c0.8-3.7,6.8-3.9,9.7-3.7c0.3,0,0.6-0.2,0.6-0.5c0.5-3.3,1.5-6,5.3-6.5
		C135.1,156.7,137.6,157.7,139.4,160L139.4,160z"/>
	<path class="st2" d="M314.7,181.4c-0.5,0-0.6-0.3-0.5-0.9c0.1-0.3,0.2-0.6,0.5-0.8c1.3-1.3,1.5-2.8,0.6-4.6
		c-0.1-0.2-0.3-0.4-0.5-0.5c-1.2-0.4-2.4-0.9-3.7-0.8c-2.5,0.2-4.9,0.2-7.2,0.2c-1.1,0-2.2,0.2-3.3,0.8c-1.5,0.7-3.1,1.3-5,1.8
		c-1.3,0.3-2,1.2-3.4,1.1c-1.1-0.1-2.2,0-3.3,0.3c-0.6,0.2-1.2,0.1-1.7-0.2c-0.3-0.1-0.5-0.2-0.8-0.1c-0.4,0.1-0.7,0.3-1,0.6
		c-0.2,0.2-0.4,0.3-0.7,0.3l-0.8,0.1c-1.1-1.3-1.4-3.1-0.9-5.3c0.5-2.2,1.6-5.3,4-5.9c1.4-0.3,2.7-0.6,4-0.7
		c0.4-0.1,0.5-0.3,0.4-0.6L291,165c-0.1-0.3-0.1-0.6,0-0.8c3-9.6,16.4-9.4,16.6,1.8c0,0.3,0.2,0.5,0.5,0.5l3.9,0
		c0.2,0,0.4,0.1,0.6,0.2c3.2,2.4,5,5.1,5.5,7.9C318.6,177.7,317.5,180,314.7,181.4L314.7,181.4z"/>
	<path class="st2" d="M267.7,168.3l-1.3,0.8c-0.2,0.1-0.4,0.3-0.4,0.6c-0.2,0.9-0.7,2-1.4,2.6c-0.7,0.6-1.2,1.5-2,2
		c-4.2,2.7-8.6,3-13.2,0.7c-0.7-0.4-1.6,0.2-1.6,1c-0.1,1.9-0.1,4.1-0.3,6.5c-0.1,1-0.4,1.9-1.1,2.7c-0.8,0.9-1.6,1.4-2.6,1.7
		c-2.1-2.3-3.1-5-3.2-8c-0.1-2.5,1.4-3.5,3-4.9c0.2-0.2,0.3-0.6,0.2-0.8c-1-2-1.9-4.4-1.6-6.6c0.1-0.6,0.4-1.1,1-1.4l4.6-2.1
		c0.3-0.1,0.5-0.1,0.7,0.1c0.2,0.2,0.4,0.4,0.5,0.7c0.1,0.3,0.3,0.6,0.7,0.6c0.8,0.2,1.5,0.1,2.2-0.2c0.3-0.1,0.5-0.4,0.5-0.7
		c1.4-5.4,7.3-7.6,11.9-4.4C267.3,161.2,269.5,164.6,267.7,168.3L267.7,168.3z"/>
	<path class="st1" d="M234,158.1l2.2,4.4c0.2,0.5,0,1-0.5,1.2c-1.5,0.6-3.6,2.9-2.5,4.6c0.6,0.9,1.3,1.6,2.4,2.4
		c0.3,0.2,0.6,0.3,0.9,0.3c0.9-0.1,1.3,0.4,1.5,1.3c0.1,0.5-0.1,1.1-0.4,1.7c-1.6,2.9-1.6,5.9-0.1,8.9c-1.1,0.3-2.1,0.7-3.2,1.1
		c-1.2,0.5-2.4,0.7-3.5,0.7c-1.8,0-3.5-0.1-5.1-0.2c-1-0.1-2.2,0.1-3.4,0.5c-2.3,0.8-5,0.7-7.3,0c-0.9-0.2-1.9-0.4-2.9-0.4
		c-1,0-1.9-0.1-2.9-0.1l-3-0.2c-0.5,0-0.7-0.3-0.6-0.8l0.5-3.4c0.1-0.6,0.4-0.9,1.1-0.8c0.5,0.1,0.7-0.1,0.8-0.5
		c0.1-0.3,0-0.5-0.3-0.6l-1.7-0.6c1.1-0.8,2.3-1.6,3.5-2.3c1.3-0.8,2.5-1.6,3.4-2.5c2-1.9,4-3.8,6.1-5.6c0.5-0.5,1.3-0.3,1.6,0.4
		c0.4,1.1,1.1,1.7,2.4,2c2.4,0.4,4.4,0.4,6-0.2c1-0.4,2-1,2.9-2c0.2-0.2,0.3-0.4,0.4-0.7L234,158.1L234,158.1z"/>
	<path class="st3" d="M112.6,163.2c-0.3,1.4-0.3,2.9,0,4.6c0.3,2.3,0.9,4.4,1.8,6.5c0.2,0.6-0.1,1.2-0.7,1.3
		c-1.7,0.4-2.9,0.5-3.5,0.3c-2.7-2.8-3.5-5.6-2.3-8.3c0-0.1,0.1-0.2,0.2-0.2c0.1,0,0.2-0.1,0.3-0.1c0,0,0.1,0,0.1-0.1l0.8-7.1
		c0-0.5,0.5-0.7,1-0.5l0.8,0.4c0.2,0.1,0.4,0.3,0.4,0.5C111.6,161.6,112,162.5,112.6,163.2L112.6,163.2z"/>
	<path class="st1" d="M139.4,160l5.9,8.7c-0.7,1.4-1.1,3.2-1,5.4c-6-1.1-12.8,0.4-15.8,6c-2,3.6-2.4,7.4-1.2,11.4c0,0,0,0,0,0
		c0,0,0,0,0,0c-0.6-1-1.1-1.9-2.2-2.5c-2.1-1-4.2-1.5-6.4-1.6c-0.4,0-0.7-0.3-0.7-0.7c-0.3-2.3-0.6-7.1,0.9-8.6
		c0.8-0.8,1.6-1.7,2.3-2.7l4-0.5c0.3,0,0.4-0.2,0.4-0.5c0.1-2.1,0.3-4.1,0.6-6.1c0.2-0.9,0.9-1.5,1.8-1.5l7.9,0.3
		c0.6,0,1.2-0.4,1.4-0.9L139.4,160L139.4,160z"/>
	<path class="st2" d="M186.2,167.3c-0.7-0.9-1.3-0.7-1.9,0.6c-0.2,0.4-0.3,1-0.2,1.7c0.1,2.8-1.1,4.9-3.5,6.6
		c-1.9,1.3-3.1,2.6-3.6,3.9c-0.7,1.9-2,5.5-3.8,6.3c-2.2,0.9-4.6,1.5-7.3,1.7c-0.3,0-0.5,0-0.8-0.2l-3-2c-0.2-0.1-0.4-0.2-0.7-0.2
		l-3.3,0.2c-0.9-5.6,3.2-11.7,9.3-10c0.3,0.1,0.4,0,0.3-0.3c-0.7-3.1-0.3-6.2,1.2-9.3c3.1-6,13.3-8,17.1-1.6
		C186.5,165.6,186.5,166.4,186.2,167.3L186.2,167.3z"/>
	<path class="st1" d="M277,175.2c-0.2,0.6-0.6,1.1-1.2,1.5l-1.8,1.1c-0.7,0.4-0.9,0.2-0.7-0.5c1.2-3.5,1.2-7.4,0.1-11.8
		c-0.2-0.8,0.1-1.3,0.9-1.5c1.6-0.4,3.9,0.5,5.3,1.3c0.3,0.2,0.5,0.6,0.3,0.9L277,175.2L277,175.2z"/>
	<path class="st1" d="M186.2,167.3c-0.4,0.9-0.4,1.8,0,2.5c0.2,0.3,0.4,0.4,0.7,0.5c0.9,0.1,1.7-0.2,2.4-0.8
		c0.2-0.2,0.5-0.3,0.8-0.4c7.1-1.2,12.2,4.6,11.1,11.6c0-0.4,0-0.7,0-1c-0.1-0.5-0.2-0.5-0.2,0c0,0.2-0.1,0.3-0.2,0.3
		c-1,0.5-1.7,1.2-2.1,2.3c-0.2,0.6-0.6,1.1-1.1,1.6c-1.2,1.1-2.4,2-3.6,2.7c-1,0.6-2.2,1-3.5,1.1c-1.5,0.1-3,0.3-4.4,0.5
		c-0.9,0.2-1.6,0.8-2.3,1.2c-0.2,0.1-0.4,0.3-0.5,0.5c-0.5,0.9-0.4,1.4,0,1.6c-3.1,2.3-5.8,4.6-7.9,6.9c-0.4,0.4-1,0.6-1.7,0.6
		c-2.7,0-5.2-0.4-7.3-1.1c-4.5-1.4-3.4-4.4-3.2-8c0-0.3-0.1-0.5-0.4-0.5c-1.2-0.2-2.3-0.8-3.4-1.7c-0.7-0.6-1-1.2-1-1.8l3.3-0.2
		c0.2,0,0.5,0,0.7,0.2l3,2c0.2,0.2,0.5,0.2,0.8,0.2c2.7-0.2,5.1-0.8,7.3-1.7c1.8-0.8,3.1-4.4,3.8-6.3c0.5-1.3,1.7-2.6,3.6-3.9
		c2.4-1.6,3.6-3.8,3.5-6.6c0-0.7,0.1-1.3,0.2-1.7C184.8,166.6,185.5,166.4,186.2,167.3L186.2,167.3z"/>
	<path class="st1" d="M267.7,168.3c0.1,0.2,0,0.5-0.3,0.8l-0.6,0.7c-0.2,0.2-0.3,0.5-0.3,0.7c0.2,1.2,0.1,2.2-0.3,2.8
		c-1.2,2.4-2.1,4.9-4.3,6.8c-0.7,0.6-1.7,1.1-3.1,1.7c-1.6,0.7-3,1.5-4.4,2.6c-1.9,1.1-4,2.8-5.8,3.3c-1.8,0.5-3.4,0.2-4.8-0.9
		c1-0.3,1.8-0.8,2.6-1.7c0.7-0.7,1-1.6,1.1-2.7c0.1-2.4,0.2-4.6,0.3-6.5c0-0.8,0.9-1.4,1.6-1c4.6,2.3,8.9,2.1,13.2-0.7
		c0.8-0.5,1.3-1.4,2-2c0.7-0.6,1.2-1.7,1.4-2.6c0-0.3,0.2-0.5,0.4-0.6L267.7,168.3L267.7,168.3z"/>
	<path class="st3" d="M145.4,168.6c1.6,1.3,3.2,1.9,4.8,1.9c3.6,0,7.3,0,11,0c0.3,0,0.5,0.3,0.3,0.6c-1.9,2.5-4.1,5-6.8,7.4
		c-0.7,0.6-1.4,1.4-2,2.2c-0.2,0.3-0.6,0.3-0.8,0c-1-1.5-2.2-3.1-3.5-4.6c-0.8-0.9-2.1-1.6-4-2.2
		C144.3,171.9,144.6,170.1,145.4,168.6L145.4,168.6z"/>
	<path class="st3" d="M267.5,169.1c0,0.1,0,0.3,0,0.4c0,0.3,0.2,0.5,0.4,0.6c1.1,0.6,1.5,1.6,1.3,2.9c-0.6,3.9-1.5,7.9-2.6,12.2
		c-0.1,0.5-0.7,0.8-1.2,0.6c-1.2-0.4-2.5-0.7-3.8-0.8c-2.3-0.2-4.6-0.4-7-0.6c1.4-1.1,2.8-1.9,4.4-2.6c1.4-0.6,2.4-1.2,3.1-1.7
		c2.2-1.8,3-4.4,4.3-6.8c0.3-0.7,0.4-1.6,0.3-2.8c0-0.3,0.1-0.5,0.3-0.7L267.5,169.1L267.5,169.1z"/>
	<path class="st3" d="M349.2,171c1.7,1.6,2.3,3.5,2,5.7c-0.1,0.8-0.6,1.7-1.4,2.5c-0.7,0.7-1.4,1.4-2.1,2.1
		c-1.8,1.8-3.9,2.7-6.4,2.9c-0.3,0-0.4-0.1-0.5-0.4c-0.3-1.9-1.7-2.7-4-2.3c0.2-0.9,0.3-1.4,0.3-1.5c0-0.8-0.2-0.9-0.8-0.3
		c-0.7,0.8-1.5,0.7-2.3-0.1c0.7-2.4,0.2-5.3-1.6-8.7c-0.1-0.3,0.1-0.6,0.4-0.6c2.8,0,5.7,0.2,8.7,0.5c2.3,0.3,4.4,0.5,6.4,0.6
		c0.3,0,0.6-0.1,0.9-0.2C348.9,171.1,349,171,349.2,171L349.2,171z"/>
	<path class="st1" d="M314.7,181.4c-0.8,0.8-1.6,1.2-2.4,1c-0.6-0.1-1.1,0.3-1.2,0.9c-0.1,1.2-0.2,2.3-0.2,3.3
		c-0.1,2.4-3.5,5.2-5.3,6.3c-2,1.3-4.5,1.3-6.7,2.1c-0.2,0.1-0.4,0.2-0.6,0.4l-0.7,0.7c-0.2,0.2-0.6,0.1-0.7-0.3
		c-0.3-4.4-1-10.7-5.3-12.6c-1.7-0.8-3.5-1.4-5.5-2c-0.8-0.2-1.6-1.1-2.5-2.5l0.8-0.1c0.3,0,0.5-0.1,0.7-0.3c0.3-0.3,0.6-0.5,1-0.6
		c0.3-0.1,0.6,0,0.8,0.1c0.6,0.3,1.1,0.4,1.7,0.2c1.1-0.3,2.2-0.4,3.3-0.3c1.4,0.1,2.1-0.8,3.4-1.1c1.8-0.5,3.5-1,5-1.8
		c1.1-0.5,2.2-0.8,3.3-0.8c2.3,0.1,4.7,0,7.2-0.2c1.3-0.1,2.5,0.3,3.7,0.8c0.2,0.1,0.4,0.2,0.5,0.5c0.9,1.8,0.7,3.4-0.6,4.6
		c-0.2,0.2-0.4,0.5-0.5,0.8C314,181.1,314.2,181.4,314.7,181.4L314.7,181.4z"/>
	<path class="st2" d="M157.4,192.5c-0.5,0.5-0.8,1-1.1,1.5c-0.3,0.5-0.4,1.1-0.3,1.6c0.2,1.4,0.2,2.9,0,4.5c0,0.2-0.1,0.3-0.2,0.4
		c-2.5,2.2-5.9,2.5-9.1,2.3c-0.3,0-0.5,0-0.8,0.2l-1.3,0.7c-0.2,0.1-0.4,0.3-0.5,0.5l-3.7,5.6c-0.1,0.2-0.2,0.5-0.1,0.7
		c0.1,0.4,0,0.8-0.4,1.1c-0.2,0.2-0.4,0.5-0.4,0.8c-0.1,0.8-0.4,1.4-0.9,1.9c-0.2,0.2-0.5,0.3-0.8,0.3c-0.4,0-0.8,0.1-1.1,0.4
		c-0.4,0.3-0.8,0.5-1.2,0.7c-2.1,0.7-3.6,0.1-4.5-1.8c-0.5-1.1-1-2.2-1.4-3.3c-0.7-2-0.3-3.6,1.1-4.9c0.2-0.2,0.3-0.3,0.3-0.6
		c0.2-0.9,1.4-1.4,2-2.3c0.8-1.3,1.8-2.6,3.1-3.5c1-0.6,2.7-1.8,2.5-3.1c0-0.3-0.2-0.5-0.5-0.5c-0.4,0-0.8-0.1-1.1-0.3
		c-2.4-2.6-5.1-4.9-5.4-8.8c-0.5-6.9,6.9-8.4,12.1-8c4.2,0.3,5.2,3.6,6,7.1c0.4,1.9,3.7,3.3,5.2,4.2
		C155.5,190.3,156.4,191.2,157.4,192.5L157.4,192.5z"/>
	<path class="st3" d="M201.1,180.8c-0.5,1.2-1.2,2.5-2,3.7c-1.6,2.6,1.5,4.8-1.8,7.1c-1.8,1.2-3.4,2.5-4.6,3.8
		c-0.2,0.2-0.4,0.2-0.6,0c-2.9-2.4-5.9-3.6-9-3.7c-0.5-0.2-0.5-0.7,0-1.6c0.1-0.2,0.3-0.4,0.5-0.5c0.8-0.4,1.4-1,2.3-1.2
		c1.4-0.2,2.9-0.4,4.4-0.5c1.3-0.1,2.5-0.5,3.5-1.1c1.2-0.8,2.4-1.7,3.6-2.7c0.5-0.5,0.9-1,1.1-1.6c0.4-1,1.1-1.8,2.1-2.3
		c0.1-0.1,0.2-0.2,0.2-0.3c0.1-0.5,0.1-0.5,0.2,0C201.2,180.1,201.2,180.4,201.1,180.8L201.1,180.8z"/>
	<path class="st2" d="M372.3,198.4c-0.7-0.3-1.1-0.7-1.3-1.3c-0.2-0.7-1.1-1-1.6-0.5c-2.7,2-5.7,2.4-9.1,1.2
		c-0.3-0.1-0.5-0.3-0.7-0.5l-2.3-3.9c-0.3-0.4-0.9-0.5-1.2-0.1c-1.1,1.4-2.6,1.9-4.5,1.6c-0.5-0.1-1-0.2-1.4-0.5
		c-0.6-0.3-1.2-0.2-1.7,0.2c0,0-0.2,0.2-0.4,0.5c-0.2,0.3-0.6,0.5-1,0.4c-0.3,0-0.5-0.3-0.5-1c2.2-2.7,4.2-5.5,6.1-8.4
		c0.8-1.3,1.3-2.6,1.4-3.9c0-0.5,0.3-0.9,0.7-1c1.9-0.8,4.5-2.1,6.5-1.5c1.7,0.6,3.2,1.6,4.6,3.1c0.2,0.3,0.3,0.6,0.2,1
		c-0.1,0.5-0.1,0.9,0.2,1.2c0.2,0.2,0.5,0.4,0.8,0.5c1.9,0.3,3.7,0.7,5.4,1.2C378.4,188.7,377.4,196.3,372.3,198.4L372.3,198.4z"/>
	<path class="st2" d="M287.6,203.6l-3.5-1.7c-0.1-0.1-0.3-0.1-0.4,0c-0.1,0-0.1,0.1-0.2,0.2c-0.2,0.2-0.4,0.3-0.6,0.4
		c-3.4,1-6.6,1-9.7,0c-0.2-0.1-0.3-0.2-0.4-0.3c0-0.1-0.1-0.1-0.1-0.2c-0.2-0.2-0.3-0.3-0.5-0.3c-1.3-0.4-2.5-0.9-3.6-1.3
		c-0.3-0.1-0.5-0.3-0.8-0.5c-0.3-0.3-0.8-0.4-1.3-0.3c-1.3,0.2-2.5,0.1-3.6-0.3c-1.1-0.4-1.5-1.7-0.8-2.6c0.7-1.1,1.3-2.2,1.8-3.4
		c0.4-1.1,1.4-2,3.1-2.9l1-0.3c0.3-0.1,0.4-0.3,0.5-0.5c0.4-2.6,1.4-4.7,2.9-6.3c2.8-2.9,5.7-3.3,8.8-1.1c1.5,1,2.5,2.6,3.9,3.8
		c0.2,0.2,0.4,0.3,0.7,0.3c3.3,0.7,6.4,1.3,7.1,5.3c0.4,2.3,0.3,5.1-0.4,8.3c-0.1,0.3-0.3,0.7-0.5,0.9L287.6,203.6L287.6,203.6z"/>
	<path class="st4" d="M336.9,181.5c2.4-0.4,3.7,0.4,4,2.3c0,0.3,0.2,0.4,0.5,0.4c2.4-0.2,4.6-1.1,6.4-2.9l-0.9,3.1
		c-0.1,0.3-0.2,0.5-0.4,0.6c-0.7,0.6-1.1,1.5-1.3,2.7c0,0.4-0.1,0.7-0.3,1c-0.5,1-0.8,2-0.9,3c0,0.3-0.2,0.5-0.4,0.7l-1.2,0.9
		c-0.6,0.5-1.5,0.3-1.9-0.3c-0.7-1.1-1-2.5-0.7-4c0.3-1.7,0.3-3.5,0-5.2c0-0.2-0.2-0.4-0.3-0.6c-0.7-0.5-1.6-0.3-2.1-0.8
		C337,182.2,336.8,181.9,336.9,181.5L336.9,181.5z"/>
	<path class="st2" d="M332.9,192.8c-0.6,0.9-1.3,1.8-2.2,2.6c-0.8,0.7-1.6,1.1-2.4,1c-0.9-0.1-1.8-0.4-2.4-1.1
		c-0.2-0.2-0.4-0.3-0.6-0.3c-0.4,0-0.6-0.2-0.8-0.5c-0.1-0.2-0.3-0.3-0.4-0.4l-8.6-5.6c2.9-4.5,7-6.5,12.3-6
		c1.2,0.1,2.2,0.5,2.9,1.2c1.3,1.3,2.7,2.6,3.9,4.1c0.2,0.3,0.3,0.6,0.1,0.9L332.9,192.8L332.9,192.8z"/>
	<path class="st3" d="M237.5,182.8l-0.3,3.5c0,0.3,0.1,0.5,0.2,0.7l2.5,2.8c-2.3-0.2-3.8,0.2-4.8,1c-0.2,0.2-0.4,0.3-0.7,0.4
		c-2.2,0.7-3.4,1.9-3.5,3.7l-4-4.4c-0.2-0.2-0.4-0.3-0.7-0.3l-5.8,0.2c-0.3,0-0.6-0.1-0.9-0.3c-2.9-2.9-6.4-4.8-10.5-5.6
		c1,0,1.9,0.1,2.9,0.1c1,0,1.9,0.2,2.9,0.4c2.4,0.6,5,0.7,7.3,0c1.2-0.4,2.4-0.6,3.4-0.5c1.6,0.1,3.3,0.2,5.1,0.2
		c1.1,0,2.2-0.2,3.5-0.7C235.4,183.5,236.5,183.1,237.5,182.8L237.5,182.8z"/>
	<path class="st1" d="M315.3,188.6l8.6,5.6c0.2,0.1,0.3,0.3,0.4,0.4c0.2,0.3,0.5,0.5,0.8,0.5c0.2,0,0.5,0.1,0.6,0.3
		c0.7,0.6,1.5,1,2.4,1.1c0.8,0.1,1.6-0.3,2.4-1c0.9-0.8,1.6-1.7,2.2-2.6c0.7,0.2,1.9,0.4,3.7,0.5c1.6,0.1,2.9,1.6,2.4,3.3
		c-0.3,1.1-0.6,2.2-0.8,3.4c0,0.2,0,0.5,0.1,0.7c1.2,2.7,4,5.1,4.4,8c0.7,4.2-0.5,6.6-2.9,9.9c-0.6,0.9-1.3,1-2.3,1.1
		c-3.1,0.4-6.4,0.8-9.8,1.1c-0.3,0-0.4-0.1-0.3-0.4c0.5-2.3,0.6-4.6,0.2-7.1c-0.7-4.2-3.8-5-7.3-6c-0.7-0.2-1.3-0.7-1.5-1.4
		c-1.2-3.2-3.3-5.8-6.4-7.8c-0.5-0.3-0.8-0.9-0.8-1.5c0-1,0.4-1.9,1-2.8C313.6,192,314.5,190.3,315.3,188.6L315.3,188.6z"/>
	<path class="st2" d="M224.6,195.2c-0.1,1.1,0.1,2.2,0.5,3.1c0.5,1.3,0.8,2.2,0.8,2.6c0,1-0.1,1.9-0.5,2.8c-0.1,0.2-0.2,0.4-0.5,0.6
		c-0.4,0.3-0.8,0.6-1.1,1c-0.3,0.3-0.7,0.6-1.1,0.7c-1.8,0.5-3.4,0.6-4.9,0.2c-1.4-0.4-2.7-0.5-3.8-0.3c-1.6,0.2-3.2,0.5-4.9,0.9
		c-1.5,0.4-2.7,1.1-3.3,2.1c-1.4,2.1-2.1,4.6-2,7.2c0,0.7-0.3,1.2-1,1.3c-0.4,0.1-1,0.1-1.7,0.1c-0.7,0-1.3-0.3-1.8-0.9
		c-0.8-2.9,1.5-4.8,3.5-6.4c0.3-0.2,0.3-0.6,0-0.8c-3.9-2.6-6.7-6.7-4.3-11.6c1.4-2.9,4.9-8.7,8.6-8.7c4.9,0,8.3,1.9,10.3,5.7
		c0.2,0.4,0.5,0.5,0.8,0.2l0.3-0.2c0.2-0.1,0.4-0.2,0.6-0.2C220.8,194.5,222.7,194.7,224.6,195.2L224.6,195.2z"/>
	<path class="st1" d="M266.9,190.3c-1.7,0.9-2.7,1.9-3.1,2.9c-0.5,1.2-1,2.4-1.8,3.4c-0.6,0.9-0.2,2.2,0.8,2.6
		c1.1,0.4,2.3,0.5,3.6,0.3c0.5-0.1,0.9,0,1.3,0.3c0.2,0.2,0.5,0.3,0.8,0.5c1.1,0.4,2.3,0.8,3.6,1.3c0.2,0.1,0.4,0.2,0.5,0.3
		c0.1,0.1,0.1,0.1,0.1,0.2c0.1,0.2,0.2,0.3,0.4,0.3c3.1,1,6.4,1,9.7,0c0.3-0.1,0.5-0.2,0.6-0.4c0.1-0.1,0.1-0.1,0.2-0.2
		c0.1-0.1,0.3-0.1,0.4,0l3.5,1.7c-1.8,2.7-2.1,5.4-1,7.9c-0.1,2.4-0.8,4.4-2.4,6c-0.2,0.2-0.4,0.2-0.7,0.2l-9.8-3.2
		c0.3-5.1-1.5-8.7-5.5-10.8c-1.4-0.7-3.2-0.6-4.7-1.3c-0.4-0.2-0.7-0.3-1.2-0.3c-0.6,0-1-0.1-1.2-0.3c-2.1-1.5-4-3.1-5.9-4.8
		c-0.3-0.3-0.5-0.6-0.5-1c-0.4-2.6,0.5-4.4,2.8-5.4c2.3-1,3.9-1.4,4.8-1C264,189.9,265.4,190.2,266.9,190.3L266.9,190.3z"/>
	<path class="st1" d="M240,189.8c1.2,1,2.7,1.8,4.4,2.4c0.4,0.2,0.9,0.3,1.6,0.2c0.5-0.1,1,0.3,1,0.8c0,1.5-0.3,2.6-0.9,3.5
		c-7.5,3.6-8.8,9.3-9.9,16.8c-0.2,1.3-0.6,1.4-1.4,0.3l-3.2-4.5c-0.4-0.6-0.4-1.4-0.1-2c2.7-4.3,2.5-8.5-0.5-12.4
		c0.1-1.8,1.2-3,3.5-3.7c0.2-0.1,0.5-0.2,0.7-0.4C236.2,190,237.8,189.7,240,189.8L240,189.8z"/>
	<path class="st0" d="M68.7,205.9c-3.4,3.7-9.2,4-12.9,0.5c-3.8-3.4-4.1-9.2-0.7-12.9c3.4-3.7,9.2-4,12.9-0.5
		C71.8,196.4,72.1,202.1,68.7,205.9L68.7,205.9z"/>
	<path class="st3" d="M124,196.2l-4.7-1.5c-0.3-0.1-0.5-0.2-0.6-0.5l-1.3-1.8c2-2.3,4.3-2.4,6.9-0.3c0.8,0.6,1,1.3,0.8,2.1
		C124.9,194.9,124.5,195.6,124,196.2L124,196.2z"/>
	<path class="st3" d="M246.1,196.7c0.5-0.9,0.8-2,0.9-3.5c0-0.5-0.5-0.9-1-0.8c-0.7,0.1-1.2,0.1-1.6-0.2c2.2,0.3,4.2-0.3,5.9-1.6
		c0.2-0.2,0.6,0,0.6,0.3l-0.4,4.3c0,0.3-0.2,0.5-0.5,0.6L246.1,196.7L246.1,196.7z"/>
	<path class="st1" d="M157.4,192.5c0.8,2.2,1.2,4.5,1.2,7c0,0.7,0.4,1.3,1,1.6c1.5,0.6,2.9,1.4,3.9,2.3c0.7,0.6,0.9,1.5,0.6,2.3
		c-0.9,2.1-1.9,3.7-3.2,5.1c-1.8,1.7-3.7,2.8-5.5,3.4c-2.4-0.8-5.6-1.6-7.4-3.3c-0.2-0.2-0.3-0.4-0.3-0.6c0-0.2-0.1-0.3-0.2-0.3
		c-0.2-0.1-0.3-0.1-0.5,0.1c-1.7,2.2-3.4,4.3-5,6.3c-2,2.5-6.5,2.5-9.4,2.3c-1.5-0.1-2.9-0.8-3.9-1.8c-2.8-2.9-3.7-6.7-2.8-11.3
		c0.6-3,1.9-5.2,4-6.7c1.7-1.2,4.2-1.7,6.3-2.3c0.6-0.2,0.8-0.5,0.7-0.9c0.3,0.2,0.7,0.3,1.1,0.3c0.3,0,0.5,0.2,0.5,0.5
		c0.2,1.3-1.5,2.5-2.5,3.1c-1.3,0.8-2.4,2.2-3.1,3.5c-0.5,0.9-1.7,1.4-2,2.3c-0.1,0.2-0.2,0.4-0.3,0.6c-1.4,1.3-1.8,3-1.1,4.9
		c0.4,1.1,0.9,2.3,1.4,3.3c0.9,1.9,2.4,2.5,4.5,1.8c0.4-0.2,0.8-0.4,1.2-0.7c0.3-0.3,0.7-0.4,1.1-0.4c0.3,0,0.5-0.1,0.8-0.3
		c0.5-0.5,0.8-1.1,0.9-1.9c0-0.3,0.2-0.6,0.4-0.8c0.3-0.3,0.5-0.7,0.4-1.1c-0.1-0.2,0-0.5,0.1-0.7l3.7-5.6c0.1-0.2,0.3-0.4,0.5-0.5
		l1.3-0.7c0.2-0.1,0.5-0.2,0.8-0.2c3.2,0.2,6.7-0.1,9.1-2.3c0.1-0.1,0.2-0.3,0.2-0.4c0.2-1.6,0.2-3.1,0-4.5c-0.1-0.6,0-1.1,0.3-1.6
		C156.5,193.5,156.9,193,157.4,192.5L157.4,192.5z"/>
	<path class="st1" d="M117.3,192.5l1.3,1.8c0.2,0.2,0.4,0.4,0.6,0.5l4.7,1.5c-3,7.6-3.7,14.5,0.9,21.4c0.2,0.2,0.1,0.4-0.2,0.4
		c-3.5,0-18-1.4-18-6.5c0-0.3-0.1-0.6-0.3-0.9c-2.3-3-2.8-6.2-1.4-9.5c1.6-4,4.8-4.5,8.8-4.2c0.3,0,0.6-0.1,0.8-0.3
		C115.6,195.3,115.9,193.8,117.3,192.5L117.3,192.5z"/>
	<path class="st3" d="M128.1,193.2c0.1,0.1,0.2,0.3,0.2,0.4c0,0.2-0.1,0.3-0.2,0.4c-0.1,0-0.2,0.1-0.3,0c-0.1,0-0.1-0.1-0.1-0.2v-1
		c0-0.3,0.1-0.3,0.3-0.1c0.1,0.1,0.1,0.2,0.1,0.3C128,193.2,128,193.2,128.1,193.2L128.1,193.2z"/>
	<path class="st1" d="M372.3,198.4c-0.3,0.1-0.5,0.2-0.7,0.3c-0.2,0.2-0.3,0.3-0.1,0.6c1.2,1.5,3.7,5.2,3.1,7.2
		c-1.1,3.5-3.2,5.5-6.3,6c-1.9,0.3-4.1,0.3-6.5,0c-0.3,0-0.5-0.2-0.7-0.4l-1.6-2.3c-0.2-0.3-0.5-0.3-0.7-0.2
		c-1.4,0.8-2.7,1.8-4.4,1.8c-1.4,0-4.1-0.1-4.7-1.7c-1.1-2.9-2.4-5.8-3.7-8.7c-1.1-2.3-0.8-4.4,0.8-6.4c0,0.6,0.2,1,0.5,1
		c0.5,0,0.8-0.1,1-0.4c0.2-0.3,0.3-0.5,0.4-0.5c0.5-0.5,1.1-0.5,1.7-0.2c0.4,0.2,0.9,0.4,1.4,0.5c1.9,0.3,3.4-0.2,4.5-1.6
		c0.3-0.4,0.9-0.4,1.2,0.1l2.3,3.9c0.2,0.3,0.4,0.4,0.7,0.5c3.4,1.2,6.4,0.8,9.1-1.2c0.6-0.4,1.4-0.2,1.6,0.5
		C371.2,197.7,371.7,198.1,372.3,198.4L372.3,198.4z"/>
	<path class="st1" d="M61.5,204.3c-2.5-0.2-4.3-2.4-4.1-4.9c0.2-2.5,2.3-4.5,4.8-4.3c2.5,0.2,4.3,2.4,4.1,4.9
		C66.1,202.5,63.9,204.4,61.5,204.3L61.5,204.3z"/>
	<path class="st1" d="M224.6,195.2c1.8,0.8,3,2.4,3.4,4.9c0.5,3.1-0.3,5.7-2.5,7.7c-0.5,0.5-0.5,1.4,0.1,1.8c4.2,3,5.8,5.8,4.2,11.4
		c-0.5,1.6-2.3,2.5-3.5,3.4c-1.8,1.4-7.9,0.8-9.7,0.5c-0.3,0-0.5-0.2-0.7-0.6c-0.1-0.3,0-0.5,0.2-0.6c0.2-0.1,0.3-0.3,0.3-0.4
		c0.2-0.4,0-0.5-0.4-0.6c-1-0.1-2.3,0.3-2.9,1.2c-0.3,0.5-0.7,0.7-1.3,0.7c-2.1,0-4.4-0.1-7-0.3c-0.3,0-0.5-0.1-0.8-0.3
		c-2.4-1.9-4.1-4.4-4.9-7.3c0.5,0.6,1.1,0.8,1.8,0.9c0.7,0,1.3,0,1.7-0.1c0.7-0.2,1-0.6,1-1.3c-0.1-2.7,0.6-5.1,2-7.2
		c0.7-1,1.8-1.7,3.3-2.1c1.7-0.4,3.4-0.7,4.9-0.9c1.1-0.1,2.4,0,3.8,0.3c1.5,0.4,3.2,0.3,4.9-0.2c0.4-0.1,0.8-0.3,1.1-0.7
		c0.3-0.4,0.7-0.7,1.1-1c0.2-0.1,0.4-0.3,0.5-0.6c0.3-0.9,0.5-1.9,0.5-2.8c0-0.5-0.3-1.3-0.8-2.6
		C224.6,197.4,224.5,196.4,224.6,195.2L224.6,195.2z"/>
	<path class="st5" d="M195,212.6c0.2-1.6-0.2-2.5-1.2-2.8c-0.4-0.1-0.9,0-1.2,0.4l-3.2,3.8c-0.2,0.2-0.4,0.3-0.7,0.3
		c-0.7,0-1.5,0.1-2.1,0.3c-3.3,1.1-7.9-2.1-8.7-5.4c-0.1-0.3,0-0.5,0.1-0.8c0.6-1.4,1.8-3.2-0.2-4.2c1-2.8,3-5.1,5.9-6.8
		c0.3-0.2,0.5-0.2,0.8-0.2c4.4,0.6,7.5,4.8,8.8,8.9c0.5,1.6,2.4,2.1,3.1,3.8c0.1,0.2,0.1,0.5,0,0.8
		C196.1,211.5,195.6,212.1,195,212.6L195,212.6z"/>
	<path class="st1" d="M268.4,222.2c-0.8,0.7-1.4,1-1.8,0.8c-0.5-0.3-1.1-0.5-1.8-0.6c-2-0.3-4.2-1.3-6.1-2.1
		c-0.3-0.1-0.6-0.3-0.9-0.5c-0.6-0.4-1-0.3-1.4,0.3c-0.1,0.2-0.3,0.4-0.5,0.5c-4.2,1.8-8.6,2.7-13.2,2.6c-0.9,0-1.7-0.8-1.6-1.8
		l0.2-4.1c-0.1-2.1-0.3-4.2-0.6-6.4c-0.1-0.6,0-1.5,0.4-2.5c1.4-3.6,7.6-8.4,11.5-6.2c2.3,1.3,5.4,2.8,6.3,5.5c0.3,1,1.4,1.4,2.3,1
		c4.2-1.9,7.7-0.2,8.1,4.7C269.6,216.8,269.3,219.7,268.4,222.2L268.4,222.2z"/>
	<path class="st3" d="M295,202.3c0,0,0.1,0,0.1,0l0,0c1.1,1.2,0.5,3.4-1.2,5l-0.1,0.1c-1.8,1.6-4.1,2-5.1,0.8l0,0c0,0,0-0.1,0-0.1
		L295,202.3L295,202.3z"/>
	<path class="st1" d="M376.3,211.6c1.4-2.4,1.5-5.3,1.5-8c0-0.3,0.3-0.5,0.5-0.4c3.7,1.5,7,0.4,8.5,5.2c0.8,2.4-0.1,3.9-2.8,4.5
		c-3.1,0.6-5.6,0.7-7.6,0.3c-0.7-0.2-1,0-1.7,0.1c-0.4,0.1-0.5-0.1-0.1-0.3c0.3-0.3,0.7-0.5,1.1-0.7
		C375.9,212.1,376.1,211.9,376.3,211.6L376.3,211.6z"/>
	<path class="st2" d="M320.4,223.3c-0.5,0-0.9-0.1-1.1-0.4c-0.1-0.1-0.2-0.2-0.4-0.3l-1.5-0.8c-0.2-0.1-0.3-0.2-0.5-0.4
		c-1.4-1.6-3.1-2.7-5.2-3.2c-2.3-0.6-3.9-0.9-4.8-1c-1.9-0.2-3.5,0.3-4.7,1.5c-0.9,0.9-1.8,1.7-2.7,2.3c-0.7,0.5-1.6,0.7-2.5,0.7
		c-0.9,0-1.8,0-2.8,0c-0.3,0-0.5,0.1-0.7,0.3c-0.7,0.6-1.7,1-2.8,1.3c-0.2-2.6-0.1-5.1,0.5-7.5c0.6-2.6,4.3-3.5,6.6-3.6
		c0.5,0,1.1,0.2,1.4,0.6c0.3,0.4,0.5,0.4,0.5-0.2c-0.4-6.2,4.7-10.5,10.6-8.8c2.8,0.8,4.3,2.8,4.7,6c0,0.3,0.2,0.5,0.6,0.5l3.2,0.2
		c0.2,0,0.4,0.1,0.6,0.2c1.2,0.9,2.3,2,3.3,3.4C325,217.4,323.5,221.4,320.4,223.3L320.4,223.3z"/>
	<path class="st1" d="M177.8,204.3c2,1,0.8,2.8,0.2,4.2c-0.1,0.3-0.1,0.5-0.1,0.8c0.8,3.2,5.4,6.4,8.7,5.4c0.7-0.2,1.4-0.3,2.1-0.3
		c0.3,0,0.5-0.1,0.7-0.3l3.2-3.8c0.3-0.3,0.7-0.5,1.2-0.4c1,0.3,1.4,1.2,1.2,2.8c-1,1.3-1.2,2.6-0.6,4c1,2.4,2.5,4.8,4.6,7.3
		c0.2,0.2,0.2,0.3-0.2,0.3c-10.5-0.2-21.3-0.9-32.2-2c-0.5-0.1-0.6-0.3-0.2-0.7c0.4-0.4,0.6-0.8,0.8-1.2c0.1-0.3,0.2-0.6,0.2-1
		c-0.2-2.3-0.4-4.6-0.7-6.9c-0.3-2.5,0.6-4.6,2.5-6.2C171.7,204.2,174.6,203.5,177.8,204.3L177.8,204.3z"/>
	<path class="st3" d="M160.9,210.7c0.3,2,0.3,3.9,0,5.8c-0.2,1.7,0.5,3.6-2,4.1c-2.4,0.5-4.9,0.4-7.6-0.1c-0.8-0.2-1.1-1.1-0.6-1.7
		c1.3-1.5,2.8-2.8,4.6-4c0.1-0.1,0.2-0.2,0.2-0.3c0-0.1,0-0.3-0.1-0.4C157.3,213.5,159.1,212.4,160.9,210.7L160.9,210.7z"/>
	<path class="st6" d="M390.5,211.3l-0.3,1.1c-0.1,0.3,0,0.5,0.3,0.6c1.7,0.8,3.6,2,3.5,4.1c-0.1,6.5-0.3,11.3-0.7,14.4
		c-0.2,1.8-1.3,2.9-3.3,3.3c-2.1,0.4-4.1,0.8-6.1,1.1c-0.8,0.1-1.5,0.8-1.6,1.6l-43.1,232.2l-3.7,22.8c0,0.3-0.3,0.5-0.5,0.5
		c-8.9,1.6-17.9,2.8-26.8,3.7c-16.3,1.6-32.8,2.6-49.5,3c-15.1,0.3-30.4-0.4-45.5-1.1c-18.3-0.9-36.6-2.7-54.7-5.3
		c-0.4-0.1-0.7-0.3-0.8-0.7l-4.4-22.3c-7.9-40.3-15.8-80.7-23.6-120.9c-6.7-34.6-13.7-72.1-21.1-112.6c-0.1-0.5-0.5-0.9-1-1
		c-2.3-0.4-8.6-1.2-9-4.2c-0.6-5.1-0.9-10.1-0.8-15.2c0-1.7,1.7-2.3,3.4-2.8c0,1.9,0.5,3.7,1.6,5.2l0.1,9c0,0.3,0.2,0.6,0.5,0.7
		c1.8,0.7,3.6,1.2,5.3,1.5c6.8,1.4,14.6,2.6,23.6,3.6c32.9,3.8,65.8,5.8,98.9,6.3l5.1,0.1c0.7,0.4,1.8,0.5,3.1,0.2
		c0.4-0.1,0.6,0.3,0.5,0.6c0,0.1-0.1,0.1-0.2,0.2c-0.2,0.1-0.2,0.2-0.1,0.3c0.2,0.4,0.5,0.5,0.8,0.3c0.1,0,0.3,0,0.3,0.1
		c0.1,0.1,0,0.3-0.1,0.4c-0.4,0.3-0.5,0.7-0.2,1c0.2,0.3,0.2,0.5-0.1,0.7c-0.1,0.1-0.2,0.1-0.3,0c-0.2-0.1-0.2,0-0.1,0.1
		c0.1,0.2,0.2,0.3,0.5,0.3c2.2,0.1,2.7,0.4,1.6,1l-14.8,0.1l-21.3-0.6l-20.4-0.7l-27.7-2.1l-9.1-1l-21-2.4c0-0.2-0.2-0.4-0.6-0.5
		c-3.7-0.5-7.2-1-10.7-1.5c-0.5-0.1-0.7,0.1-0.6,0.6c2.3,12.9,4.7,25.7,7.2,38.3c4.2,21.3,7.6,40.7,11.4,60.4
		c6.8,34.9,13.6,69.8,20.3,104.7c3,15.4,5.6,30.9,8.5,46.4c0.1,0.6,0.4,1.1,0.8,1.4c0.5,0.3,1,0.5,1.7,0.6c17.7,2,34.1,3.5,49.4,4.4
		c6.6,0.5,13.7,0.8,21.4,0.9c15.5,0.2,28.3,0,38.5-0.5c17.3-0.8,34.7-2.4,52.4-4.8c0.3,0,0.5-0.2,0.5-0.5c0.4-1.5,0.7-2.8,0.9-4.1
		c2.1-12.1,4.3-23.5,6.4-34.4c4-20.6,7.4-41.6,11-60.7c3.6-19.2,6.8-36.8,9.7-52.7c2.5-13.9,5.2-26.9,7.5-40.3
		c3.5-20.1,7.3-39.8,11.3-59c0.1-0.3-0.2-0.6-0.5-0.6l-7.9,1l-3.4-0.6c-0.4-0.1-0.6-0.3-0.6-0.7c0-0.1-0.1-0.2-0.2-0.2
		c-0.2,0-0.3-0.1-0.3-0.4c0-0.1,0.1-0.2,0.2-0.3c0.1,0,0.1-0.2,0-0.3c-0.2-0.2-0.4-0.5-0.4-0.8c0-0.2,0-0.4,0.2-0.6l1.1-1
		c0.2-0.2,0.4-0.3,0.6-0.3l2.1,0c0.3,0,0.5-0.1,0.7-0.2c0.4-0.2,0.8-0.2,1.2,0c0.3,0.1,0.5,0,0.5-0.3c0-0.1,0.1-0.2,0.2-0.2
		c0.2-0.1,0.4-0.1,0.6,0c1.4,0.3,2.5,0.1,3.5-0.5l14.9-2.4c0.6-0.1,1.1-0.6,1.1-1.3l0.1-9.4l0.1-0.7c0-0.4-0.1-0.5-0.5-0.6l-1.1-0.1
		c-0.3,0-0.5-0.2-0.6-0.4c-0.1-0.2,0-0.5,0.2-0.7c0.1-0.1,0.2-0.1,0.3-0.1c0.1,0,0.1,0,0.2,0.1c0.2,0.1,0.3,0.1,0.2-0.2
		c-0.2-0.5-0.2-0.9,0.2-1.3c0.1-0.1,0.2-0.1,0.3,0.1c0,0.1,0,0.1-0.1,0.2c0,0,0,0,0,0c0,0,0,0,0,0c0.4-0.2,0.5-0.4,0.4-0.7
		c-0.3-0.5-0.1-0.7,0.4-0.8c0.1,0,0.3,0,0.4,0c0.4,0.1,0.5,0,0.5-0.4C389.4,212.3,389.7,211.7,390.5,211.3L390.5,211.3z"/>
	<path class="st3" d="M286.7,211.5l0.3,11.9c0,0.5-0.2,0.8-0.8,0.9c-3.9,0.5-7.8,0.5-11.7,0.2c-1-0.1-1.5-0.6-1.4-1.6l0.7-8.4
		l9.8,3.2c0.3,0.1,0.5,0,0.7-0.2C285.8,215.9,286.6,213.9,286.7,211.5L286.7,211.5z"/>
	<path class="st3" d="M354.1,218.2c-3.2,0.1-6.3,0.3-9.3,0.6c-0.2,0-0.3-0.2-0.2-0.3c1.2-1.6,1.8-3.3,2-5.2c0-0.4,0.2-0.5,0.5-0.2
		c2.4,2.1,6.1,2.7,9,3.8c1.1,0.4,1.1,0.8,0,1.1C355.5,218.1,354.8,218.2,354.1,218.2L354.1,218.2z"/>
	<path class="st3" d="M241.3,217.3l-0.2,4.1c0,0.9,0.7,1.7,1.6,1.8c4.5,0.1,8.9-0.8,13.2-2.6c0.2-0.1,0.4-0.2,0.5-0.5
		c0.4-0.6,0.9-0.7,1.4-0.3c0.3,0.2,0.5,0.3,0.9,0.5c1.9,0.8,4.1,1.8,6.1,2.1c0.6,0.1,1.2,0.3,1.8,0.6c0.4,0.2,1-0.1,1.8-0.8
		c-0.6,1.2-1.2,2.1-2,2.7c-0.2,0.1-0.4,0.2-0.6,0.2c-9.8,0.5-19.3,0.6-28.3,0.1c-0.8,0-1.7-0.2-2.6-0.5c-0.2-0.1-0.4-0.3-0.4-0.5
		C233.7,219.4,237.9,218.6,241.3,217.3L241.3,217.3z"/>
	<path class="st1" d="M320.4,223.3c-0.6,0.3-1.1,0.6-1.6,1.1c-0.2,0.2-0.3,0.4-0.3,0.7c0.1,3-0.1,7.5-2.9,9.1
		c-1.2,0.7-2.6,1.2-4.2,1.6c-0.4,0.1-0.8,0.1-1.2-0.1c-1.5-0.7-2.9-1-4.3-1c-0.8,0-1.6-0.2-2.3-0.6c-1.3-0.8-2.5-1.8-3.4-2.8
		c-1.2-1.3-1.5-3.3-1.8-5.1c-0.1-0.7-0.7-1.3-1.3-1.4l-6.4-1.6c1.1-0.3,2-0.7,2.8-1.3c0.2-0.2,0.5-0.3,0.7-0.3c0.9,0,1.9,0,2.8,0
		c0.9,0,1.8-0.2,2.5-0.7c0.9-0.6,1.8-1.4,2.7-2.3c1.2-1.2,2.7-1.7,4.7-1.5c0.8,0.1,2.4,0.4,4.8,1c2.1,0.5,3.8,1.6,5.2,3.2
		c0.1,0.2,0.3,0.3,0.5,0.4l1.5,0.8c0.2,0.1,0.3,0.2,0.4,0.3C319.5,223.2,319.9,223.3,320.4,223.3L320.4,223.3z"/>
	<path class="st7" d="M388.8,218.5l-0.1,9.4c0,0.6-0.5,1.2-1.1,1.3l-14.9,2.4c-9.5,1.2-19.1,2.3-28.6,3.4c-8.8,1-17.3,1.5-26,2.5
		c-0.4,0-0.4,0-0.1-0.2c2.3-1.1,3.9-2,4.6-4.8c0.4-1.8,0.7-3.9,0.7-6.3c0-0.3,0.3-0.6,0.6-0.7c7.2-0.8,14.6-1.6,22.2-2.5
		c4.4-0.5,9.7-1.2,15.7-2.1c9-1.4,17.8-2.5,26.3-3.2C388.6,217.8,388.8,218,388.8,218.5L388.8,218.5z"/>
	<path class="st5" d="M102.8,218.9c13.9,2.7,27.7,4.5,41.6,5.6c8.1,0.6,16.1,1.3,24.2,2c18.9,1.6,35.7,2.6,50.5,2.9
		c5.8,0.1,17.2,0.2,34.2,0.2c-0.4,0.9-0.5,1.7-0.3,2.2c0.1,0.2,0.1,0.5,0,0.8c-0.2,0.8-0.3,1.6-0.5,2.3c-0.1,0.7-0.5,1.3-1.1,1.7
		c-0.3,0.2-0.4,0.4-0.6,0.7c-0.2,0.5-0.5,0.7-1,0.8c-0.3,0.1-0.5,0.3-0.6,0.6c-0.1,0.3-0.2,0.5-0.5,0.7c-0.2,0.1-0.4,0.2-0.6,0.2
		c-0.4,0-0.7,0-1.1,0.2c-0.2,0.1-0.5,0.2-0.8,0.2l-15,0c-33.1-0.4-66.1-2.5-98.9-6.3c-8.9-1-16.8-2.2-23.6-3.6
		c-1.8-0.4-3.6-0.9-5.3-1.5c-0.3-0.1-0.5-0.4-0.5-0.7L102.8,218.9L102.8,218.9z"/>
	<path class="st7" d="M236.4,240.1l-5.1-0.1l15,0c0.3,0,0.5-0.1,0.8-0.2c0.3-0.2,0.7-0.2,1.1-0.2c0.2,0,0.4-0.1,0.6-0.2
		c0.2-0.2,0.4-0.4,0.5-0.7c0.1-0.3,0.3-0.5,0.6-0.6c0.5-0.1,0.8-0.4,1-0.8c0.1-0.3,0.3-0.5,0.6-0.7c0.6-0.4,1-1,1.1-1.7
		c0.1-0.8,0.3-1.6,0.5-2.3c0.1-0.3,0.1-0.5,0-0.8c-0.2-0.6,0-1.3,0.3-2.2l40.1-1.4c0.7,0,1.3,0.4,1.4,1.1c0.2,0.7,0.3,1.4,0.3,2.1
		c0.1,2.6,2.1,4.9,4.5,5.4c1.4,0.3,3,0.2,4.9-0.1c0.4-0.1,0.7,0.1,0.7,0.6c0,0.1,0,0.2,0,0.3c0,0.4-0.3,0.8-0.7,0.9
		c-0.6,0.2-1.3,0.3-2,0.3c-12,0.2-24.8,0.5-38.4,1.1C255.3,240.3,245.7,240.1,236.4,240.1L236.4,240.1z"/>
	<path class="st0" d="M61.6,242.6c0,5.3-4.3,9.6-9.6,9.6s-9.6-4.3-9.6-9.6c0-5.3,4.3-9.6,9.6-9.6S61.6,237.3,61.6,242.6L61.6,242.6z
		"/>
	<path class="st2" d="M442.9,248.3c-2.9,1.1-6.2-0.6-7.3-3.7c-1.1-3.1,0.3-6.5,3.2-7.5c2.9-1.1,6.2,0.6,7.3,3.7
		C447.2,243.8,445.8,247.2,442.9,248.3L442.9,248.3z"/>
	<path class="st5" d="M127.8,238.8c0.1,3.3,0.5,6.2,1.2,8.7c3.9,20.2,7.8,40.1,11.8,59.7c1,5,2,10.2,3.1,15.5
		c4,21.2,8.4,42.5,12.4,63.8c4.8,25.3,9.5,50.1,14.2,74.2c1.1,5.5,2.3,11.1,3.6,16.9c0.1,0.4,0.4,0.6,0.7,0.7
		c5.4,0.8,11.3,1.5,17.5,1.9c0.2,0,0.4-0.2,0.4-0.4c-0.7-7.1-1.8-14-3.1-21c-0.3-1.4-0.9-2.6-1.1-4c-1.2-8.7-2.3-17.4-3.7-26
		c-3.1-19.4-5.9-39-8.3-58.8c-0.7-5.4-1.4-10.6-2.1-15.7c-4.7-32.8-9.3-64.6-13.6-95.3c-0.2-1.1-0.6-3.5-1.3-7.2
		c8.4,1.1,16.7,1.7,24.9,2.1c0.4,0,1-0.1,1.9-0.3l0.3,0.7l21.4,227.4c0,0.3,0.3,0.5,0.5,0.5l10.9,0.5c0.3,0,0.5-0.1,0.5-0.5
		c-0.2-3.5-0.5-6.9-0.9-10.2c-0.4-3.6-0.7-7-0.8-10.2c-2.2-38.5-4.5-76.7-6.9-114.6c-2-30.6-3.5-61.3-4.5-92
		c5.9,0.2,11.8,0.4,17.7,0.7c1,0,1.7-0.2,2.7-0.4c0.1,0.2,0.2,0.3,0.1,0.3l7.6,214.7l0.4,12.8c0,0.3,0.2,0.5,0.5,0.5l9.3,0.1
		l4.4,0.2c0.5,0,0.8,0.6,0.4,1c-1.2,1.3-2.5,2.5-3.9,3.3c-1.4,0.9-2.7,1.7-3.9,2.6c-0.9,0.6-2.1,1.2-3.4,1.7
		c-1.1,0.4-2.3,0.6-3.5,0.6c-4.6,0-9.2,0-13.8,0.1c-2,0-4,0.5-6,0.3c-15.3-0.9-31.7-2.4-49.4-4.4c-0.7-0.1-1.2-0.3-1.7-0.6
		c-0.4-0.3-0.7-0.8-0.8-1.4c-2.9-15.5-5.5-31-8.5-46.4c-6.8-34.9-13.6-69.8-20.3-104.7c-3.8-19.6-7.2-39-11.4-60.4
		c-2.5-12.6-4.9-25.4-7.2-38.3c-0.1-0.5,0.1-0.7,0.6-0.6c3.4,0.5,7,0.9,10.7,1.5C127.6,238.4,127.8,238.6,127.8,238.8L127.8,238.8z"
		/>
	<path class="st7" d="M215.4,493.7c2.1,0.2,4-0.3,6-0.3c4.6-0.1,9.2-0.1,13.8-0.1c1.2,0,2.3-0.2,3.5-0.6c1.4-0.5,2.5-1.1,3.4-1.7
		c1.3-0.8,2.6-1.7,3.9-2.6c1.4-0.9,2.7-2,3.9-3.3c0.3-0.4,0.1-1-0.4-1l-4.4-0.2l6.7-0.1l3.3,0l11.3-0.6c0.1,0,0.2-0.1,0.2-0.3
		l0.4-13.1l0.1-1.7l14.4-3.9c0.3-0.1,0.7-0.1,1,0.1c0.3,0.2,0.6,0.1,0.8-0.3l0,0.7l-1.6,17.5c0,0.2,0.1,0.3,0.3,0.3l20.5-2.3
		l1.8-0.1l13.3-2.1c0.4-0.1,0.8-0.4,0.9-0.8c0.8-3.1,1.5-6.2,2-9.3c1.8-10.7,3.6-21.9,5.4-33.6c0.8-5.2,1.7-10.4,2.7-15.6
		c6-31.7,11.3-62.8,17.1-95.8c0.8-4.7,1.7-9.9,2.6-15.6c2.7-16.3,5.5-32.6,8.5-48.9c1.2-6.4,2.4-13,3.5-19.8l6.2-0.7l7.9-1
		c0.3,0,0.6,0.3,0.5,0.6c-4,19.3-7.8,39-11.3,59c-2.3,13.4-5.1,26.4-7.5,40.3c-2.9,16-6.1,33.6-9.7,52.7c-3.6,19.1-7,40.1-11,60.7
		c-2.1,10.9-4.2,22.4-6.4,34.4c-0.2,1.3-0.5,2.7-0.9,4.1c-0.1,0.3-0.3,0.4-0.5,0.5c-17.7,2.4-35.2,4-52.4,4.8
		c-10.2,0.5-23,0.6-38.5,0.5C229.1,494.5,222,494.2,215.4,493.7L215.4,493.7z"/>
	<path class="st1" d="M57.1,242.6c0,2.8-2.3,5.1-5.1,5.1c-2.8,0-5.1-2.3-5.1-5.1s2.3-5.1,5.1-5.1C54.8,237.5,57.1,239.8,57.1,242.6
		L57.1,242.6z"/>
	<path class="st8" d="M148.8,241.3c-0.3,0.6-0.2,1,0.2,1.2c0.3,0.1,0.5,0.4,0.5,0.8c-0.3,2,0,3.7,0.8,5.3c0.1,0.2-0.1,0.5-0.3,0.5
		l-20.9-1.5c-0.7-2.5-1.1-5.4-1.2-8.7L148.8,241.3L148.8,241.3z"/>
	<path class="st8" d="M360.4,238.6c-1.1,6.7-2.3,13.3-3.5,19.8c-3,16.3-5.9,32.5-8.5,48.9c-0.9,5.7-1.8,10.9-2.6,15.6
		c-5.8,33-11.1,64-17.1,95.8c-1,5.2-1.9,10.5-2.7,15.6c-1.8,11.6-3.6,22.8-5.4,33.6c-0.5,3.1-1.2,6.2-2,9.3
		c-0.1,0.4-0.5,0.7-0.9,0.8l-13.3,2.1c2.6-24.2,4.6-41.3,6.1-51.3c2.8-18.3,5.4-36.9,7.9-55.7c0.7-5.5,1.4-10.7,2.1-15.7
		c1.4-9.6,2.7-18.8,3.9-27.6c0.7-5.3,1.5-10.5,2.3-15.7c3.6-23.5,7.1-47,10.4-70.5l0.5-2.2c0.1-0.3,0.2-0.4,0.5-0.5L360.4,238.6
		L360.4,238.6z"/>
	<path class="st9" d="M148.8,241.3l9.1,1l1.6,9.7c0.7,3.7,1.1,6.1,1.3,7.2c4.3,30.7,8.8,62.5,13.6,95.3c0.7,5.1,1.4,10.3,2.1,15.7
		c2.5,19.8,5.2,39.4,8.3,58.8c1.4,8.6,2.5,17.4,3.7,26c0.2,1.4,0.9,2.6,1.1,4c1.3,6.9,2.3,13.9,3.1,21c0,0.2-0.2,0.4-0.4,0.4
		c-6.3-0.4-12.1-1-17.5-1.9c-0.4-0.1-0.7-0.3-0.7-0.7c-1.4-5.8-2.6-11.4-3.6-16.9c-4.7-24.2-9.4-48.9-14.2-74.2
		c-4-21.3-8.3-42.5-12.4-63.8c-1-5.3-2-10.5-3.1-15.5c-4-19.6-7.9-39.5-11.8-59.7L150,249c0.3,0,0.5-0.3,0.3-0.5
		c-0.8-1.5-1.1-3.3-0.8-5.3c0-0.3-0.1-0.7-0.5-0.8C148.6,242.3,148.5,241.9,148.8,241.3L148.8,241.3z"/>
	<path class="st8" d="M334.4,241.5c-2.4,14.7-4.6,29.3-6.7,43.7c-2.7,18.7-5.5,38.3-8.5,59c-1.8,12.6-3.3,25.5-5.2,38.5
		c-0.8,5.6-1.6,10.8-2.2,15.6c-1.5,11.5-3.2,22.8-4.6,34.4c-1.5,12.4-3.1,24.6-4.8,36.4c-0.4,2.7-0.8,6.2-1.1,10.5
		c0,0.6,0.4,0.8,1.2,0.7l-20.5,2.3c-0.2,0-0.3-0.1-0.3-0.3l1.6-17.5l0.4-0.2c0.2-0.1,0.4-0.1,0.6,0c0.3,0.2,0.6,0.3,0.9,0.1
		c3.1-1.6,9.6-5.8,10-8.7c0.5-3.3,0.4-6.5,0.8-9.8c0.7-5.7,1.3-11.5,1.8-17.6c0.3-3.9,0.7-8.1,1.4-12.8c0.4-2.9,0.8-5.3,1.1-7.2
		c0.4-2.3,0.8-4.7,1-7.2c0.5-4.9,1.1-10,2-15.3c0.1-0.9,0.2-1.8,0.3-2.6c0.1-2.3,0.6-4.4,0.9-6.6c0.3-3.2,0.7-6.4,1.1-9.7
		c0.4-3.1,0.4-6.4,0.9-9.6c1-6.8,1.6-13.9,2.9-20.7c1.1-5.3,1.4-10.7,2.1-16.2c1.3-10.3,2.7-21.9,4.2-34.9
		c1.2-10.3,2.8-20.8,4.8-31.4c0.1-0.4-0.2-0.8-0.6-0.8c-4.5,0.2-9.3,0.5-14.2,1c-0.5,0-1.3,0.6-2.4,1.5l-0.1-1.6l1-10.7L334.4,241.5
		L334.4,241.5z"/>
	<path class="st4" d="M334.4,241.5c1.1,0.5,2,1.2,2.7,2.1c-3.3,23.5-6.8,47-10.4,70.5c-0.8,5.1-1.6,10.3-2.3,15.7
		c-1.2,8.8-2.5,18-3.9,27.6c-0.7,5-1.4,10.2-2.1,15.7c-2.4,18.9-5,37.4-7.9,55.7c-1.5,10-3.6,27.1-6.1,51.3l-1.8,0.1
		c-0.8,0.2-1.3-0.1-1.2-0.7c0.4-4.3,0.7-7.8,1.1-10.5c1.7-11.9,3.3-24,4.8-36.4c1.4-11.6,3.1-22.8,4.6-34.4
		c0.6-4.8,1.4-10.1,2.2-15.6c1.9-13,3.4-25.9,5.2-38.5c3-20.6,5.8-40.3,8.5-59C329.8,270.8,332,256.2,334.4,241.5L334.4,241.5z"/>
	<path class="st7" d="M157.9,242.2l27.7,2.1l0.8,9.4c-0.9,0.2-1.5,0.3-1.9,0.3c-8.2-0.3-16.6-1-24.9-2.1L157.9,242.2L157.9,242.2z"
		/>
	<polygon class="st7" points="304,244 303.1,254.7 281.2,256 282,245 304,244 	"/>
	<path class="st8" d="M206,244.9l0.7,9.7c0,0.5-0.1,0.8-0.4,0.9c-0.2,0.1-0.4,0-0.7-0.2c-0.6-0.4-1.1-0.6-1.6-0.6
		c-5.8-0.2-11-1.1-17.2-0.4l-0.3-0.7l-0.8-9.4L206,244.9L206,244.9z"/>
	<path class="st7" d="M206,244.9l21.3,0.6l0,10.1c-1,0.2-1.7,0.5-2.7,0.4c-5.9-0.2-11.8-0.5-17.7-0.7l-0.3-0.7L206,244.9L206,244.9z
		"/>
	<path class="st8" d="M282,245l-0.9,11.1c-0.1,0-0.2,0.1-0.2,0.2c0,0.1-0.1,0.2-0.2,0.3c-0.2,0.2-0.4,0.2-0.6,0
		c-0.6-0.5-1.1-0.8-1.9-0.8c-7.1,0.6-14.1,0.7-21.2,0.2l0.1-9.3c-0.4-1.1,0.5-1.5,2.7-1.3c1.2,0.1,2.2,0.2,2.8,0.1
		C269.2,245.3,275.7,245.1,282,245L282,245z"/>
	<path class="st8" d="M254.1,245.7c-0.3,0.9-0.4,1.6-0.4,2c-0.1,3.1-0.1,6.2-0.2,9.3c-0.1-0.3-0.2-0.7-0.5-1
		c-0.2-0.2-0.3-0.3-0.6-0.3l-25.1,0.2c0.1,0.1,0.1,0-0.1-0.3l0-10.1l14.8-0.1L254.1,245.7L254.1,245.7z"/>
	<path class="st4" d="M254.1,245.7c0.4,0.1,0.8,0.3,1.2,0.5c0.3,0.1,0.5,0.4,0.7,0.7c0.6,1.1,1.1,1,1.3-0.2l-0.1,9.3
		c-0.3,26-0.7,52.1-1,78.3c-0.7,45.4-1,90.9-1,136.4l0,13.2l-3.3,0l-0.4-11.8l2.1-215c0.1-3.1,0.1-6.2,0.2-9.3
		C253.7,247.3,253.8,246.6,254.1,245.7L254.1,245.7z"/>
	<path class="st9" d="M283.3,464.7l0-0.7c3.4-37.7,7.2-75.4,11.3-113.1c1-9.2,2.4-24.9,4.2-47.2c1.3-15.8,3.1-31.6,4.4-47.5
		c1-1,1.8-1.5,2.4-1.5c5-0.4,9.7-0.8,14.2-1c0.4,0,0.7,0.3,0.6,0.8c-2,10.6-3.5,21.1-4.8,31.4c-1.5,12.9-3,24.5-4.2,34.9
		c-0.7,5.5-1,10.8-2.1,16.2c-1.4,6.8-1.9,13.9-2.9,20.7c-0.5,3.2-0.5,6.5-0.9,9.6c-0.4,3.2-0.8,6.4-1.1,9.7
		c-0.2,2.2-0.8,4.4-0.9,6.6c0,0.8-0.1,1.7-0.3,2.6c-0.8,5.3-1.5,10.4-2,15.3c-0.3,2.5-0.6,4.8-1,7.2c-0.3,1.9-0.7,4.3-1.1,7.2
		c-0.6,4.7-1.1,9-1.4,12.8c-0.5,6.1-1,11.9-1.8,17.6c-0.4,3.3-0.4,6.5-0.8,9.8c-0.4,2.9-6.9,7.1-10,8.7c-0.3,0.2-0.6,0.1-0.9-0.1
		c-0.2-0.2-0.4-0.2-0.6,0L283.3,464.7L283.3,464.7z"/>
	<path class="st9" d="M206.7,254.7l0.3,0.7c1,30.7,2.5,61.4,4.5,92c2.4,37.9,4.7,76.1,6.9,114.6c0.2,3.1,0.5,6.5,0.8,10.2
		c0.3,3.3,0.6,6.7,0.9,10.2c0,0.3-0.1,0.5-0.5,0.5l-10.9-0.5c-0.3,0-0.5-0.2-0.5-0.5l-21.4-227.4c6.2-0.7,11.4,0.2,17.2,0.4
		c0.5,0,1.1,0.2,1.6,0.6c0.3,0.2,0.6,0.3,0.7,0.2C206.5,255.4,206.7,255.2,206.7,254.7L206.7,254.7z"/>
	<path class="st5" d="M303.1,254.7l0.1,1.6c-1.3,15.8-3.1,31.6-4.4,47.5c-1.8,22.3-3.2,38-4.2,47.2c-4.1,37.7-7.8,75.4-11.3,113.1
		c-0.2,0.4-0.5,0.5-0.8,0.3c-0.3-0.2-0.6-0.2-1-0.1l-14.4,3.9c2.9-51,6.1-93.7,8.9-140.6c1.3-21.4,3-42.8,4.5-64.4
		c0.2-3.6,0.4-5.9,0.4-6.9c0.1-0.1,0.2-0.2,0.2-0.2L303.1,254.7L303.1,254.7z"/>
	<path class="st9" d="M253.5,257l-2.1,215l-16.5-1.4l-7.6-214.7l25.1-0.2c0.3,0,0.5,0.1,0.6,0.3C253.3,256.3,253.4,256.6,253.5,257
		L253.5,257z"/>
	<path class="st9" d="M280.9,256.2c0,1-0.1,3.3-0.4,6.9c-1.4,21.5-3.2,42.9-4.5,64.4c-2.9,46.9-6,89.7-8.9,140.6l-0.1,1.7
		c-1.7-0.5-3.3-0.7-4.9-0.3c-3.7,0.7-6,1.1-7,1.2c0-45.5,0.3-91,1-136.4c0.4-26.2,0.7-52.3,1-78.3c7,0.5,14.1,0.5,21.2-0.2
		c0.8-0.1,1.3,0.2,1.9,0.8c0.2,0.2,0.4,0.2,0.6,0C280.8,256.5,280.9,256.4,280.9,256.2L280.9,256.2z"/>
	<path class="st2" d="M421.2,276.8c-1.5-3.1-3.7-4.8-6.6-5c-5.2-0.3-9.6,3.8-8.8,9.1c-0.4-0.6-0.8-0.9-1.4-0.7
		c-0.2,0.1-0.5,0-0.7-0.1c-0.5-0.3-0.8-0.7-0.7-1.3c0-0.3,0-0.4-0.3-0.5c-0.1,0-0.1-0.1-0.2-0.2c0-0.1-0.1-0.2-0.1-0.2
		c-0.1-1.4-0.4-2.8-0.9-4.2c-1.3-4.1-0.2-9,2.6-12c4.5-4.7,12.2-3.6,15.6,2C422.4,268.2,422.8,272.5,421.2,276.8L421.2,276.8z"/>
	<path class="st0" d="M421.2,276.8c0.8,4.7-1,8-5.3,9.9c-4.3,1.9-9-1.5-10.1-5.7c-0.8-5.3,3.6-9.4,8.8-9.1
		C417.5,272,419.7,273.7,421.2,276.8L421.2,276.8z"/>
	<path class="st1" d="M414.9,282.7c-1.6,0.7-3.5-0.2-4.2-1.9c-0.7-1.7,0.1-3.6,1.7-4.3c1.6-0.7,3.5,0.2,4.2,1.9
		C417.2,280.1,416.5,282.1,414.9,282.7L414.9,282.7z"/>
	<path class="st2" d="M80.3,292.8c-2.7-2.1-3.1-6.1-1-8.9c2.2-2.8,6.2-3.4,8.9-1.3c2.7,2.1,3.1,6.1,1,8.9
		C87,294.3,83.1,294.9,80.3,292.8L80.3,292.8z"/>
	<path class="st2" d="M38.4,294.9c-3.4,0.2-6.4-2.5-6.6-6.1c-0.2-3.6,2.4-6.6,5.8-6.8c3.4-0.2,6.4,2.5,6.6,6.1
		C44.5,291.7,41.9,294.7,38.4,294.9L38.4,294.9z"/>
	<path class="st2" d="M408.1,356.7c-7.5,0-13.7-6.2-13.7-13.9c0-7.7,6.1-14,13.6-14c7.5,0,13.7,6.2,13.7,13.9
		C421.7,350.4,415.6,356.6,408.1,356.7L408.1,356.7z"/>
	<path class="st0" d="M481.4,346.2c0,6.7-5.4,12.1-12.1,12.1c-6.7,0-12.1-5.4-12.1-12.1c0-6.7,5.4-12.1,12.1-12.1
		C476,334.1,481.4,339.5,481.4,346.2L481.4,346.2z"/>
	<path class="st1" d="M476.3,348.7c-1.5,3.7-5.8,5.5-9.6,3.9c-3.8-1.5-5.8-5.7-4.3-9.4c1.5-3.7,5.8-5.5,9.6-3.9
		C475.9,340.8,477.8,345,476.3,348.7L476.3,348.7z"/>
	<path class="st0" d="M78.4,360.3c-4.8,1.7-10.1-0.8-11.9-5.6c-1.8-4.8,0.7-10.2,5.5-11.9c4.8-1.7,10.1,0.8,11.9,5.6
		C85.7,353.2,83.2,358.5,78.4,360.3L78.4,360.3z"/>
	<path class="st1" d="M74.7,356.1c-2.5-0.4-4.2-2.8-3.8-5.5c0.4-2.6,2.8-4.4,5.3-4c2.5,0.4,4.2,2.8,3.8,5.5
		C79.5,354.7,77.2,356.5,74.7,356.1L74.7,356.1z"/>
	<path class="st2" d="M106.3,361.7c0,3.3-2.7,6-6,6c-3.3,0-6-2.7-6-6c0-3.3,2.7-6,6-6C103.6,355.7,106.3,358.4,106.3,361.7
		L106.3,361.7z"/>
	<path class="st2" d="M70.1,391.5c-2,3-6.1,3.8-9.2,1.8c-3.1-2-4.1-6.1-2.1-9.2c2-3,6.1-3.8,9.2-1.8
		C71.1,384.4,72.1,388.5,70.1,391.5L70.1,391.5z"/>
	<path class="st0" d="M78.6,420.5c-3.1-5-2.9-9.7,0.5-14.3c4-5.2,13.1-6.1,17.5-0.6c0.2,0.2,0.4,0.3,0.7,0.2
		c6.3-2.6,12.5,1.8,12.8,8.5c0.3,6.2-3.2,8.6-7.2,12.4c-0.2,0.2-0.3,0.5-0.3,0.8c0.7,4.8-0.3,8.5-4.4,11.4c-2.8,1.9-5.4,2.1-8,0.4
		c-0.7-0.4-1.5-0.5-2.3-0.1c-2.5,1.2-4.9,1.3-7.3,0.2c-7-3.2-8.2-13.6-2.2-18.2C78.7,420.9,78.7,420.7,78.6,420.5L78.6,420.5z"/>
	<path class="st2" d="M96.1,410.6l0.5-0.4c0.2-0.2,0.4-0.3,0.7-0.4c7.2-2.7,11.4,5.1,6.4,10.2c-2,2-4.3,3.5-7.1,4.4
		c-0.3,0.1-0.5,0.5-0.3,0.8c1.3,1.9,1.9,4,1.7,6.3c-0.5,4.7-4.1,5.3-7.6,3.1c-0.3-0.2-0.6-0.2-0.9,0c-8.3,4.5-13.4-3.6-8.6-10.4
		c0.8-1.1,1.7-1.7,2.8-2c0.5-0.1,0.6-0.4,0.2-0.8c-2.8-2.8-3.6-6.2-2.3-10c1.3-3.8,5.2-5.7,9-4.8c1.9,0.4,3.5,1.8,4.7,4.1
		C95.6,410.8,95.8,410.8,96.1,410.6L96.1,410.6z"/>
	<path class="st0" d="M398,430.3c-5.1,3.1-11.9,1.5-15.1-3.8c-3.2-5.2-1.6-12,3.5-15.1c5.1-3.1,11.9-1.5,15.1,3.8
		C404.7,420.4,403.2,427.1,398,430.3L398,430.3z"/>
	<path class="st1" d="M398.5,420.7c0,3.4-2.8,6.2-6.2,6.2c-3.4,0-6.2-2.8-6.2-6.2c0-3.4,2.8-6.2,6.2-6.2
		C395.7,414.5,398.5,417.3,398.5,420.7L398.5,420.7z"/>
	<path class="st7" d="M339.2,469.7c10,0.7,20,1.3,30,1.7c6.7,0.3,12,0.7,15.8,1c15.5,1.3,30.7,3.2,45.6,5.8
		c4.6,0.8,9.2,1.8,13.8,3.1c3.3,0.9,9.3,2.7,11,5.6c0.1,0.2,0.2,0.5,0.2,0.8c-0.5,3.7-7.1,5.7-10.1,6.6c-4.6,1.4-9.7,2.6-15.1,3.6
		c-7.5,1.3-14.7,2.4-21.7,3.1c-36.3,3.8-71.2,6-104.7,6.5c-18.8,0.3-37.4,0.5-56.1,0.4c-28.9-0.2-53.5-0.7-73.9-1.5
		c-18.3-0.7-37-1.9-56.2-3.7c-12.5-1.2-24.4-2.7-35.7-4.7c-8.1-1.4-15.3-3.2-21.4-5.5c-1.3-0.5-2.6-1.2-3.9-2.1
		c-5.8-4.4,5.9-8.2,8.4-8.8c7.7-2.1,16.4-3.8,25.9-5c18.7-2.5,37.3-4.5,56-6.2c1-0.1,2.1-0.1,3.1-0.1c1.1,0,2.1,0,3.1,0l4.4,22.3
		c0.1,0.4,0.4,0.7,0.8,0.7c18.1,2.7,36.4,4.4,54.7,5.3c15.1,0.7,30.4,1.5,45.5,1.1c16.7-0.4,33.2-1.4,49.5-3
		c8.9-0.9,17.9-2.1,26.8-3.7c0.3-0.1,0.5-0.3,0.5-0.5L339.2,469.7L339.2,469.7z"/>
	<path class="st8" d="M267,469.9l-0.4,13.1c0,0.1-0.1,0.2-0.2,0.3l-11.3,0.6l0-13.2c1,0,3.3-0.4,7-1.2
		C263.7,469.2,265.3,469.4,267,469.9L267,469.9z"/>
	<path class="st8" d="M235,470.6l16.5,1.4l0.4,11.8l-6.7,0.1l-9.3-0.1c-0.3,0-0.5-0.2-0.5-0.5L235,470.6L235,470.6z"/>
</g>
</svg>
